/* XPM */
static char * coin_xpm[] = {
"37 40 869 2",
"  	c None",
". 	c #8D7629",
"+ 	c #9C8821",
"@ 	c #A59423",
"# 	c #AB9C20",
"$ 	c #AB9B22",
"% 	c #A49224",
"& 	c #958126",
"* 	c #968225",
"= 	c #BBAC1E",
"- 	c #DCCF17",
"; 	c #F0E21F",
"> 	c #FAE826",
", 	c #FDE92A",
"' 	c #FDE82B",
") 	c #FDE62B",
"! 	c #FDE929",
"~ 	c #F7E625",
"{ 	c #EADB1F",
"] 	c #D1C41F",
"^ 	c #AA9A26",
"/ 	c #87712E",
"( 	c #9A8628",
"_ 	c #CDC11B",
": 	c #F3E322",
"< 	c #FDE628",
"[ 	c #FEDB2E",
"} 	c #FED728",
"| 	c #FED426",
"1 	c #FED325",
"2 	c #FED225",
"3 	c #FED524",
"4 	c #FEDC46",
"5 	c #FDE667",
"6 	c #FCE72E",
"7 	c #E9DB2E",
"8 	c #B9AA23",
"9 	c #968156",
"0 	c #C0B12D",
"a 	c #F3E420",
"b 	c #FEE12B",
"c 	c #FED528",
"d 	c #FED124",
"e 	c #FECF23",
"f 	c #FED023",
"g 	c #FECE23",
"h 	c #FED122",
"i 	c #FED126",
"j 	c #FDE16F",
"k 	c #FED94D",
"l 	c #FCDC54",
"m 	c #FDE673",
"n 	c #FCEA5A",
"o 	c #E3D626",
"p 	c #A39027",
"q 	c #907D6C",
"r 	c #B0A38C",
"s 	c #F0E8C1",
"t 	c #FCE53A",
"u 	c #FED52B",
"v 	c #FED121",
"w 	c #FECE24",
"x 	c #FED11F",
"y 	c #FDCE23",
"z 	c #F9C122",
"A 	c #F2AF1D",
"B 	c #F09F1A",
"C 	c #EF981B",
"D 	c #EE9A1C",
"E 	c #F3A41E",
"F 	c #F2BA3C",
"G 	c #FAD76B",
"H 	c #FDD333",
"I 	c #FEE375",
"J 	c #FEE37B",
"K 	c #FEE379",
"L 	c #FDE670",
"M 	c #F5E63E",
"N 	c #B7A821",
"O 	c #EDE9DE",
"P 	c #DED9CB",
"Q 	c #DCD6C7",
"R 	c #FBF9EB",
"S 	c #FEF7D5",
"T 	c #FDD848",
"U 	c #FECF27",
"V 	c #FDD21E",
"W 	c #FCCB24",
"X 	c #F1A71F",
"Y 	c #EA7815",
"Z 	c #EC6C0C",
"` 	c #F0740D",
" .	c #F17A0F",
"..	c #F27D0F",
"+.	c #F17C10",
"@.	c #F27812",
"#.	c #F07311",
"$.	c #E86A11",
"%.	c #EC9035",
"&.	c #F4C969",
"*.	c #FEE178",
"=.	c #FEE378",
"-.	c #FEE37A",
";.	c #FEE475",
">.	c #FBEA4D",
",.	c #C4B51D",
"'.	c #B2A595",
").	c #FAF8EC",
"!.	c #FFFFF4",
"~.	c #FFFFF2",
"{.	c #FEF7D6",
"].	c #FDD956",
"^.	c #FED22B",
"/.	c #F3B420",
"(.	c #E97513",
"_.	c #F17612",
":.	c #F78110",
"<.	c #FA8A13",
"[.	c #FB8E12",
"}.	c #FC9113",
"|.	c #FC9213",
"1.	c #F9880F",
"2.	c #F47F0F",
"3.	c #ED6E12",
"4.	c #EA9442",
"5.	c #F9D772",
"6.	c #FEE17A",
"7.	c #FEE27B",
"8.	c #FEE370",
"9.	c #FAE526",
"0.	c #BAAB1F",
"a.	c #927E60",
"b.	c #E5DDAE",
"c.	c #FFFEF3",
"d.	c #FFFFF3",
"e.	c #FDE8A3",
"f.	c #EEA32E",
"g.	c #ED720F",
"h.	c #F6820F",
"i.	c #FC8E11",
"j.	c #FD9313",
"k.	c #FE9713",
"l.	c #FE9813",
"m.	c #FE9913",
"n.	c #FD9613",
"o.	c #FD9112",
"p.	c #FB8A12",
"q.	c #F47D10",
"r.	c #E97521",
"s.	c #F6C86A",
"t.	c #FDE178",
"u.	c #FDD751",
"v.	c #FED123",
"w.	c #F7E31B",
"x.	c #A99921",
"y.	c #B5A23E",
"z.	c #FCF2A2",
"A.	c #FFFEF2",
"B.	c #FDF4D0",
"C.	c #FDF1C3",
"D.	c #F5DFBF",
"E.	c #F08F3E",
"F.	c #F98812",
"G.	c #FD9212",
"H.	c #FD9513",
"I.	c #FC9512",
"J.	c #FC9413",
"K.	c #FC9514",
"L.	c #FC9313",
"M.	c #FC9211",
"N.	c #FC9312",
"O.	c #FC9513",
"P.	c #FD9413",
"Q.	c #FC8E12",
"R.	c #F78211",
"S.	c #EC7218",
"T.	c #F5C55C",
"U.	c #FDCD25",
"V.	c #FECC1F",
"W.	c #FED321",
"X.	c #E9DB15",
"Y.	c #8E782B",
"Z.	c #EBDD22",
"`.	c #FDEDA9",
" +	c #FCE7A1",
".+	c #FDD84E",
"++	c #F3AE3B",
"@+	c #EE8224",
"#+	c #F98E18",
"$+	c #FD9213",
"%+	c #FC9314",
"&+	c #F9B03F",
"*+	c #F9CC52",
"=+	c #FCD959",
"-+	c #FDDE5C",
";+	c #FCDA5A",
">+	c #FACD54",
",+	c #F9B644",
"'+	c #FB9417",
")+	c #FD8F11",
"!+	c #F7840C",
"~+	c #F0710F",
"{+	c #F7C01E",
"]+	c #FECB1D",
"^+	c #FECC1E",
"/+	c #FDDD1E",
"(+	c #C6B81A",
"_+	c #BAAA1B",
":+	c #FDE220",
"<+	c #FCD239",
"[+	c #FDCF32",
"}+	c #F8BE27",
"|+	c #F07310",
"1+	c #FA8611",
"2+	c #FD9211",
"3+	c #FD9312",
"4+	c #FD9110",
"5+	c #F9A130",
"6+	c #FBD550",
"7+	c #FDE148",
"8+	c #FEE13F",
"9+	c #FEE141",
"0+	c #FEE242",
"a+	c #FDE247",
"b+	c #FBD954",
"c+	c #F9A536",
"d+	c #FD9111",
"e+	c #FD9311",
"f+	c #FD9310",
"g+	c #FC8D11",
"h+	c #F67F0E",
"i+	c #EC8414",
"j+	c #FECB1B",
"k+	c #FECD1C",
"l+	c #F2E214",
"m+	c #968222",
"n+	c #E6D712",
"o+	c #FDD119",
"p+	c #FECB1C",
"q+	c #FECB1E",
"r+	c #EE8914",
"s+	c #F77F0D",
"t+	c #FD8C11",
"u+	c #FD9011",
"v+	c #FD900E",
"w+	c #F7A333",
"x+	c #FBDE4A",
"y+	c #FEDE3D",
"z+	c #FFDF3C",
"A+	c #FFDF3D",
"B+	c #FFDE3B",
"C+	c #FFDE3C",
"D+	c #FCDF48",
"E+	c #F6AB3A",
"F+	c #FB900D",
"G+	c #FC890F",
"H+	c #F3760C",
"I+	c #F4AA1C",
"J+	c #FDCB17",
"K+	c #FECA1D",
"L+	c #FDDC18",
"M+	c #C1B218",
"N+	c #A5921A",
"O+	c #FBE412",
"P+	c #FECA1B",
"Q+	c #FEC919",
"R+	c #F9B71A",
"S+	c #F1730C",
"T+	c #FC870E",
"U+	c #FD8C12",
"V+	c #FC8B10",
"W+	c #F99321",
"X+	c #FCD846",
"Y+	c #FEDF3B",
"Z+	c #FFDF39",
"`+	c #FFDF3A",
" @	c #FFE039",
".@	c #FEDE3B",
"+@	c #FCDB44",
"@@	c #F99828",
"#@	c #FC8B0E",
"$@	c #FD8D0E",
"%@	c #F8820D",
"&@	c #ED8013",
"*@	c #FDC91B",
"=@	c #FECA18",
"-@	c #FED019",
";@	c #E4D612",
">@	c #C5B711",
",@	c #FDD915",
"'@	c #FEC815",
")@	c #FEC818",
"!@	c #F29718",
"~@	c #F77D0C",
"{@	c #FD8B0F",
"]@	c #FD8B10",
"^@	c #FC880C",
"/@	c #F9BF3C",
"(@	c #FEDC33",
"_@	c #FEDC34",
":@	c #FEDC32",
"<@	c #F9C841",
"[@	c #FB870D",
"}@	c #FD8C10",
"|@	c #FC870C",
"1@	c #F2740B",
"2@	c #F9B81C",
"3@	c #F9E410",
"4@	c #9E8A1F",
"5@	c #DDCE0D",
"6@	c #FDD017",
"7@	c #FEC715",
"8@	c #FEC718",
"9@	c #F07E0F",
"0@	c #F9830B",
"a@	c #FD890D",
"b@	c #F78917",
"c@	c #FDD938",
"d@	c #FEDB32",
"e@	c #FEDB31",
"f@	c #FEDB33",
"g@	c #FDD934",
"h@	c #FEDB30",
"i@	c #FEDD32",
"j@	c #FEDA37",
"k@	c #F8931E",
"l@	c #FD8B0E",
"m@	c #F77C0B",
"n@	c #F3A218",
"o@	c #FDDE13",
"p@	c #B7A81C",
"q@	c #EBDB0B",
"r@	c #FEC915",
"s@	c #FEC615",
"t@	c #FDC319",
"u@	c #F07109",
"v@	c #FB850C",
"w@	c #FD890C",
"x@	c #FC850B",
"y@	c #F7A025",
"z@	c #FDD92E",
"A@	c #FEDA2D",
"B@	c #FDDA2D",
"C@	c #FCD430",
"D@	c #FED82E",
"E@	c #FCD32D",
"F@	c #E46812",
"G@	c #F1B327",
"H@	c #FDDA2F",
"I@	c #FED92D",
"J@	c #FEDA2C",
"K@	c #FDDA2E",
"L@	c #F6AA28",
"M@	c #FB840C",
"N@	c #FD8A0D",
"O@	c #F8810B",
"P@	c #F49012",
"Q@	c #FEC614",
"R@	c #FEC613",
"S@	c #FDD712",
"T@	c #C7BB17",
"U@	c #8A6D15",
"V@	c #F4E10B",
"W@	c #FEC814",
"X@	c #FEC415",
"Y@	c #FAB917",
"Z@	c #F3740B",
"`@	c #FC860C",
" #	c #FB810B",
".#	c #F7AD23",
"+#	c #FED72B",
"@#	c #FDD829",
"##	c #FED72A",
"$#	c #FDD52C",
"%#	c #E3650B",
"&#	c #F2B425",
"*#	c #FBCB2A",
"=#	c #EB6508",
"-#	c #F3A620",
";#	c #FCD42C",
">#	c #E2650B",
",#	c #F3B626",
"'#	c #FED82B",
")#	c #F7B523",
"!#	c #FA7F0B",
"~#	c #F9810B",
"{#	c #F28410",
"]#	c #FEC414",
"^#	c #FEC413",
"/#	c #FDD013",
"(#	c #D3C613",
"_#	c #8B6F13",
":#	c #F5E20A",
"<#	c #F9B614",
"[#	c #F4740C",
"}#	c #FC840B",
"|#	c #FB7F0A",
"1#	c #F6AD20",
"2#	c #FED423",
"3#	c #FED424",
"4#	c #FED324",
"5#	c #FCD228",
"6#	c #EA6107",
"7#	c #F4AC21",
"8#	c #FBC924",
"9#	c #EF6808",
"0#	c #F3A718",
"a#	c #FCCF29",
"b#	c #EC6406",
"c#	c #F4AD21",
"d#	c #FED323",
"e#	c #FED422",
"f#	c #F7B61E",
"g#	c #FA7A0A",
"h#	c #FA800A",
"i#	c #F3810C",
"j#	c #FEC313",
"k#	c #FDCE11",
"l#	c #D5C913",
"m#	c #8D7012",
"n#	c #F5E10D",
"o#	c #FEC511",
"p#	c #FAB614",
"q#	c #F47509",
"r#	c #FC830B",
"s#	c #FA7C08",
"t#	c #F6A515",
"u#	c #FED21A",
"v#	c #FED41A",
"w#	c #FED31C",
"x#	c #FCD222",
"y#	c #EC7A26",
"z#	c #F5B82A",
"A#	c #FCC81E",
"B#	c #F16906",
"C#	c #F6A417",
"D#	c #FCD224",
"E#	c #ED7A26",
"F#	c #F5BA2B",
"G#	c #FED31B",
"H#	c #FED31A",
"I#	c #F6B018",
"J#	c #FA7809",
"K#	c #FC800A",
"L#	c #F4850E",
"M#	c #FEC311",
"N#	c #FEC310",
"O#	c #FECD0F",
"P#	c #D4C815",
"Q#	c #F0DA0E",
"R#	c #FEC30E",
"S#	c #FEC110",
"T#	c #FDBA15",
"U#	c #F27408",
"V#	c #FB800A",
"W#	c #FB7B07",
"X#	c #F29111",
"Y#	c #FED115",
"Z#	c #FED016",
"`#	c #FED114",
" $	c #FDD015",
".$	c #FCD63B",
"+$	c #FED11E",
"@$	c #FCCE20",
"#$	c #EF882A",
"$$	c #F5B82B",
"%$	c #FDD016",
"&$	c #FED21E",
"*$	c #FED214",
"=$	c #FED116",
"-$	c #F6C730",
";$	c #F39A29",
">$	c #FB7D08",
",$	c #FA7C0A",
"'$	c #F48E11",
")$	c #FDC20D",
"!$	c #FEC20D",
"~$	c #FDCB0F",
"{$	c #CCBF18",
"]$	c #E8CE0C",
"^$	c #FEC00C",
"/$	c #FDBD11",
"($	c #F57F10",
"_$	c #FB7C08",
":$	c #FB7D09",
"<$	c #FB7908",
"[$	c #F27209",
"}$	c #FCCA11",
"|$	c #FDD00E",
"1$	c #FFCE0D",
"2$	c #FECE0F",
"3$	c #FECE0D",
"4$	c #FECF0D",
"5$	c #FBD32A",
"6$	c #FDCF15",
"7$	c #FECE0E",
"8$	c #FECF0F",
"9$	c #FDCF0D",
"0$	c #F69E13",
"a$	c #FA7A09",
"b$	c #FC7F0A",
"c$	c #FEBF0E",
"d$	c #FEBF0C",
"e$	c #FCC80C",
"f$	c #C3B317",
"g$	c #DFC20D",
"h$	c #FEC10F",
"i$	c #FEBD0B",
"j$	c #F69514",
"k$	c #FB7808",
"l$	c #FA7909",
"m$	c #F77106",
"n$	c #F4A210",
"o$	c #FECD0A",
"p$	c #FFCD0A",
"q$	c #FFCE0A",
"r$	c #FFCE0B",
"s$	c #FECD08",
"t$	c #F9BE0F",
"u$	c #F46F08",
"v$	c #FB7A07",
"w$	c #FC7C07",
"x$	c #F57609",
"y$	c #FBB114",
"z$	c #FEBC0B",
"A$	c #FAC30E",
"B$	c #BDAD17",
"C$	c #D5B910",
"D$	c #F9B811",
"E$	c #FEBB0B",
"F$	c #FEBC09",
"G$	c #FBB015",
"H$	c #F6760A",
"I$	c #FB7B08",
"J$	c #FA7308",
"K$	c #F06D08",
"L$	c #F8BE0C",
"M$	c #FDCA04",
"N$	c #FDCB04",
"O$	c #FECB04",
"P$	c #FECC04",
"Q$	c #FECB05",
"R$	c #FBC509",
"S$	c #EF7A09",
"T$	c #F77308",
"U$	c #FB7907",
"V$	c #F58413",
"W$	c #FDBB0E",
"X$	c #FEBC0A",
"Y$	c #FEBC0C",
"Z$	c #F6C110",
"`$	c #B3A118",
" %	c #C5B10D",
".%	c #F1AA15",
"+%	c #FEBB07",
"@%	c #FEBB09",
"#%	c #FDBA0A",
"$%	c #F78C17",
"%%	c #FA7A06",
"&%	c #FC7A07",
"*%	c #FB7409",
"=%	c #F66F06",
"-%	c #EF770A",
";%	c #F8C008",
">%	c #FECB03",
",%	c #FCCA03",
"'%	c #FDC904",
")%	c #F9C109",
"!%	c #ED7B08",
"~%	c #F56905",
"{%	c #FB7608",
"]%	c #FB7809",
"^%	c #F97406",
"/%	c #F9A519",
"(%	c #FDBB07",
"_%	c #FDB910",
":%	c #EEBE0E",
"<%	c #9D8716",
"[%	c #AB9610",
"}%	c #EEAE0E",
"|%	c #FCB713",
"1%	c #FEBA08",
"2%	c #FEB906",
"3%	c #FBB21C",
"4%	c #F7760C",
"5%	c #FB7707",
"6%	c #FA7006",
"7%	c #F56A05",
"8%	c #EE6B06",
"9%	c #F4AD0A",
"0%	c #FDCA06",
"a%	c #FDCB03",
"b%	c #FECA03",
"c%	c #FEC903",
"d%	c #FDC903",
"e%	c #FDCA03",
"f%	c #FCC806",
"g%	c #F0A509",
"h%	c #ED6608",
"i%	c #F46907",
"j%	c #FA7105",
"k%	c #FB7508",
"l%	c #FB7706",
"m%	c #F68917",
"n%	c #FBB80E",
"o%	c #FEB907",
"p%	c #FEBA06",
"q%	c #F4A517",
"r%	c #E5BF0A",
"s%	c #E8BB09",
"t%	c #EF9916",
"u%	c #FDB906",
"v%	c #FEB905",
"w%	c #FDB806",
"x%	c #F7A21D",
"y%	c #F97407",
"z%	c #FC7806",
"A%	c #FB7505",
"B%	c #F97104",
"C%	c #F66906",
"D%	c #F06005",
"E%	c #EC7609",
"F%	c #EF9E08",
"G%	c #F6B209",
"H%	c #F6B908",
"I%	c #F7B707",
"J%	c #F3A906",
"K%	c #EE910B",
"L%	c #E96807",
"M%	c #F05F05",
"N%	c #F66905",
"O%	c #FA6E03",
"P%	c #FB7405",
"Q%	c #F67B10",
"R%	c #FAB118",
"S%	c #FEB904",
"T%	c #FEBA04",
"U%	c #FDB80D",
"V%	c #E88B11",
"W%	c #CCB813",
"X%	c #CDB80D",
"Y%	c #E5810E",
"Z%	c #FAB315",
"`%	c #FEB806",
" &	c #FDB706",
".&	c #FCB919",
"+&	c #F7A43F",
"@&	c #FA7305",
"#&	c #FB7504",
"$&	c #FB7204",
"%&	c #F86E03",
"&&	c #F86B06",
"*&	c #F56607",
"=&	c #F16206",
"-&	c #EF5D04",
";&	c #ED5A04",
">&	c #EE5A05",
",&	c #EF5F04",
"'&	c #F36205",
")&	c #F56705",
"!&	c #F66B03",
"~&	c #F96E05",
"{&	c #FA7205",
"]&	c #FA7406",
"^&	c #F7780F",
"/&	c #F9AB20",
"(&	c #FCB604",
"_&	c #FDB805",
":&	c #F19B18",
"<&	c #EAAF08",
"[&	c #A49015",
"}&	c #9D840C",
"|&	c #EDB60E",
"1&	c #E87F1C",
"2&	c #FDB80F",
"3&	c #FEB804",
"4&	c #FDC547",
"5&	c #FDC851",
"6&	c #F7A129",
"7&	c #F77209",
"8&	c #FA7404",
"9&	c #FB7304",
"0&	c #FB6E03",
"a&	c #FB6D03",
"b&	c #F86B04",
"c&	c #F56A03",
"d&	c #F56903",
"e&	c #F66904",
"f&	c #F76A03",
"g&	c #F96C03",
"h&	c #FA6D03",
"i&	c #FB6F03",
"j&	c #FA7204",
"k&	c #F57F16",
"l&	c #FAAD28",
"m&	c #FCB503",
"n&	c #FEB703",
"o&	c #FDB804",
"p&	c #F9AF14",
"q&	c #E46E0A",
"r&	c #D8BD0F",
"s&	c #CCB40E",
"t&	c #E58206",
"u&	c #ED911B",
"v&	c #FCBB22",
"w&	c #FCD161",
"x&	c #FDBA21",
"y&	c #FCC952",
"z&	c #FABE55",
"A&	c #F78428",
"B&	c #FB7003",
"C&	c #F96F03",
"D&	c #F96E03",
"E&	c #FA6E04",
"F&	c #FA7104",
"G&	c #F97207",
"H&	c #F79426",
"I&	c #FBB321",
"J&	c #FDB403",
"K&	c #FDB402",
"L&	c #FCB603",
"M&	c #FBB313",
"N&	c #E36C15",
"O&	c #ECB307",
"P&	c #A59016",
"Q&	c #E7BF0B",
"R&	c #DE5D05",
"S&	c #EFA447",
"T&	c #FCC646",
"U&	c #FDBE2F",
"V&	c #FDD264",
"W&	c #FDD064",
"X&	c #FDCE62",
"Y&	c #F8B24F",
"Z&	c #F78C32",
"`&	c #F97105",
" *	c #F87712",
".*	c #F9952D",
"+*	c #FAAE2F",
"@*	c #FBB40E",
"#*	c #FEB502",
"$*	c #FDB604",
"%*	c #FAB416",
"&*	c #E57419",
"**	c #E68A05",
"=*	c #C8B210",
"-*	c #AC970F",
";*	c #EDB70A",
">*	c #DE5407",
",*	c #ED9124",
"'*	c #FCCE5A",
")*	c #FDD263",
"!*	c #FDD164",
"~*	c #FECE65",
"{*	c #FCC95E",
"]*	c #F9AD37",
"^*	c #F8A12E",
"/*	c #F99D30",
"(*	c #F7A02F",
"_*	c #F7A331",
":*	c #FAAD2D",
"<*	c #FDB82C",
"[*	c #FDB309",
"}*	c #FEB403",
"|*	c #FEB603",
"1*	c #FDB503",
"2*	c #FBAF1A",
"3*	c #E46F17",
"4*	c #E47104",
"5*	c #DFC20B",
"6*	c #B8A10D",
"7*	c #EFB108",
"8*	c #E05203",
"9*	c #E87F34",
"0*	c #FAC560",
"a*	c #FDD265",
"b*	c #FCC957",
"c*	c #FDB405",
"d*	c #FCB404",
"e*	c #FCB303",
"f*	c #FEB402",
"g*	c #FEB503",
"h*	c #FEB60C",
"i*	c #F39F20",
"j*	c #E05C14",
"k*	c #E66E04",
"l*	c #E4C40C",
"m*	c #957B19",
"n*	c #B8A30F",
"o*	c #EEB809",
"p*	c #E36103",
"q*	c #DF5312",
"r*	c #EE9B46",
"s*	c #FBC961",
"t*	c #FCBC21",
"u*	c #FEB604",
"v*	c #FDB502",
"w*	c #FDB603",
"x*	c #FCB60C",
"y*	c #F8A922",
"z*	c #E7791D",
"A*	c #E04704",
"B*	c #E88104",
"C*	c #E4C40E",
"D*	c #957A17",
"E*	c #AD970D",
"F*	c #E8C30B",
"G*	c #EB8604",
"H*	c #E44E03",
"I*	c #E4530C",
"J*	c #EC893A",
"K*	c #F5AA42",
"L*	c #FBB023",
"M*	c #FDB619",
"N*	c #FDB606",
"O*	c #FCB707",
"P*	c #FCB80F",
"Q*	c #FDB520",
"R*	c #F8AC21",
"S*	c #F1951F",
"T*	c #E9711C",
"U*	c #DF4A04",
"V*	c #E55B03",
"W*	c #EEA607",
"X*	c #D5BD0E",
"Y*	c #8F7516",
"Z*	c #CFB70D",
"`*	c #EFBA09",
" =	c #EB8004",
".=	c #E75603",
"+=	c #E64B03",
"@=	c #E74E07",
"#=	c #E96118",
"$=	c #EE7121",
"%=	c #EE7722",
"&=	c #ED7321",
"*=	c #EB6D1B",
"==	c #E75811",
"-=	c #E64A04",
";=	c #E64C03",
">=	c #E85F04",
",=	c #EE9705",
"'=	c #E9C40A",
")=	c #B8A413",
"!=	c #A28C0F",
"~=	c #CFBA0D",
"{=	c #EBC30C",
"]=	c #F2AC07",
"^=	c #ED8504",
"/=	c #EC6F04",
"(=	c #EA6303",
"_=	c #EA5F03",
":=	c #EB6003",
"<=	c #EB6404",
"[=	c #EC7504",
"}=	c #F09205",
"|=	c #F2B80A",
"1=	c #E3C40A",
"2=	c #C0AC13",
"3=	c #B29E0E",
"4=	c #C9B40E",
"5=	c #D8BE0B",
"6=	c #E0C208",
"7=	c #E4C309",
"8=	c #E3C309",
"9=	c #DFC30A",
"0=	c #D2BB0D",
"a=	c #C2AF0F",
"b=	c #A48E10",
"                                                                          ",
"                                                                          ",
"                              . + @ # $ % &                               ",
"                        * = - ; > , ' ) ! ~ { ] ^ /                       ",
"                    ( _ : < [ } | 1 2 1 1 3 4 5 6 7 8                     ",
"                9 0 a b c d e f f g e f h i j k l m n o p                 ",
"            q r s t u v w x y z A B C D E F G H I J K L M N               ",
"        O P Q R S T U V W X Y Z `  ...+.@.#.$.%.&.*.=.-.;.>.,.            ",
"        '.).!.~.{.].^./.(._.:.<.[.}.}.|.}.[.1.2.3.4.5.6.7.8.9.0.          ",
"        a.b.c.d.c.e.f.g.h.i.j.k.l.m.m.m.l.l.n.o.p.q.r.s.t.u.v.w.x.        ",
"        y.z.A.B.C.D.E.F.G.H.I.J.K.L.M.N.J.K.O.H.P.Q.R.S.T.U.V.W.X.        ",
"      Y.Z.`. +.+++@+#+$+P.P.%+&+*+=+-+;+>+,+'+j.P.P.)+!+~+{+]+^+/+(+      ",
"      _+:+<+[+}+|+1+2+3+4+5+6+7+8+9+9+0+9+a+b+c+d+e+f+g+h+i+]+j+k+l+m+    ",
"      n+o+p+q+r+s+t+u+v+w+x+y+z+z+A+z+z+B+C+C+D+E+F+d+u+G+H+I+J+K+L+M+    ",
"    N+O+P+Q+R+S+T+U+V+W+X+Y+Z+`+`+`+`+`+`+`+ @.@+@@@#@$@$@%@&@*@=@-@;@    ",
"    >@,@'@)@!@~@{@]@^@/@(@_@_@_@_@_@_@_@_@_@_@_@:@<@[@{@}@|@1@2@)@)@3@4@  ",
"    5@6@7@8@9@0@{@a@b@c@d@e@f@:@d@(@g@:@h@(@(@d@i@j@k@|@l@a@m@n@7@'@o@p@  ",
"    q@r@s@t@u@v@w@x@y@z@A@A@B@C@D@E@F@G@H@C@I@J@J@K@L@M@N@N@O@P@Q@R@S@T@  ",
"  U@V@W@X@Y@Z@`@`@ #.#+#@###$#%#&#*#=#-#;#>#,#'#@#@#)#!#x@w@~#{#]#^#/#(#  ",
"  _#:#R@^#<#[#}#}#|#1#2#3#4#5#6#7#8#9#0#a#b#c#d#d#e#f#g#}#x@h#i#j#^#k#l#  ",
"  m#n#o#j#p#q#r#}#s#t#u#v#w#x#y#z#A#B#C#D#E#F#G#w#H#I#J#K#}#h#L#M#N#O#P#  ",
"    Q#R#S#T#U#K#V#W#X#Y#Z#`# $.$+$@$#$$$%$.$&$*$*$=$-$;$>$}#,$'$)$!$~${$  ",
"    ]$!$^$/$($_$:$<$[$}$|$1$1$2$3$4$5$6$7$8$4$7$7$4$9$0$a$b$J#0$c$d$e$f$  ",
"    g$h$i$i$j$k$:$l$m$n$o$p$q$q$q$r$r$r$r$q$q$q$q$s$t$u$v$w$x$y$i$z$A$B$  ",
"    C$D$E$F$G$H$I$v$J$K$L$M$N$O$O$P$P$P$P$O$O$O$Q$R$S$T$U$<$V$W$X$Y$Z$`$  ",
"     %.%+%@%#%$%%%&%*%=%-%;%M$>%>%>%>%>%>%>%,%'%)%!%~%{%]%^%/%(%@%_%:%<%  ",
"    [%}%|%1%2%3%4%U$5%6%7%8%9%0%,%a%b%c%d%e%f%g%h%i%j%k%l%m%n%o%p%q%r%    ",
"      s%t%u%v%w%x%y%z%A%B%C%D%E%F%G%H%I%J%K%L%M%N%O%P%P%Q%R%S%T%U%V%W%    ",
"      X%Y%Z%`% &.&+&@&#&$&%&&&*&=&-&;&>&,&'&)&!&~&{&]&^&/&(&_&v%:&<&[&    ",
"      }&|&1&2&3&4&5&6&7&8&9&0&a&b&c&d&e&f&g&h&i&$&j&k&l&m&n&o&p&q&r&      ",
"        s&t&u&v&w&x&y&z&A&j&9&B&0&C&D&O%E&B&F&@&G&H&I&J&K&L&M&N&O&P&      ",
"          Q&R&S&T&U&V&W&X&Y&Z&T$B%F&F&$&F&`& *.*+*@*m&#*$*%*&***=*        ",
"          -*;*>*,*'*)*!*!*W&~*{*]*^*/*(*_*:*<*[*}*m&|*1*2*3*4*5*          ",
"            6*7*8*9*0*a*a*!*)*b*c*d*d*d*e*f*f*#*|*g*h*i*j*k*l*m*          ",
"              n*o*p*q*r*s*a*V&t*u*|*|*v*w*|*w*u*x*y*z*A*B*C*D*            ",
"                E*F*G*H*I*J*K*L*M*x*N*O*P*Q*R*S*T*U*V*W*X*Y*              ",
"                    Z*`* =.=+=@=#=$=%=&=*===-=;=>=,='=)=                  ",
"                      !=~={=]=^=/=(=_=:=<=[=}=|=1=2=                      ",
"                            3=4=5=6=7=8=9=0=a=b=                          ",
"                                                                          "};
