/* XPM */
static char * oben_door_xpm[] = {
"40 40 860 2",
"  	c #585550",
". 	c #57554F",
"+ 	c #585854",
"@ 	c #555752",
"# 	c #545652",
"$ 	c #565551",
"% 	c #575753",
"& 	c #565553",
"* 	c #555856",
"= 	c #575F5C",
"- 	c #59605E",
"; 	c #000000",
"> 	c #585F5D",
", 	c #586260",
"' 	c #5A615F",
") 	c #5C605D",
"! 	c #5B615E",
"~ 	c #57605D",
"{ 	c #545E5C",
"] 	c #555C5A",
"^ 	c #565B59",
"/ 	c #555B58",
"( 	c #525B59",
"_ 	c #4E5957",
": 	c #4E4B46",
"< 	c #504D48",
"[ 	c #4E4D49",
"} 	c #4D4F4B",
"| 	c #56524D",
"1 	c #54504B",
"2 	c #4D4B48",
"3 	c #544E49",
"4 	c #615953",
"5 	c #61615D",
"6 	c #5B5D59",
"7 	c #545855",
"8 	c #545552",
"9 	c #51524F",
"0 	c #4D4D49",
"a 	c #50514D",
"b 	c #51534F",
"c 	c #4F524F",
"d 	c #4D4E4A",
"e 	c #4F4E4A",
"f 	c #4C4E4A",
"g 	c #474F4C",
"h 	c #454C4A",
"i 	c #755C4E",
"j 	c #7B6153",
"k 	c #6E5649",
"l 	c #624D42",
"m 	c #735B4E",
"n 	c #6A5044",
"o 	c #775A4B",
"p 	c #876856",
"q 	c #846656",
"r 	c #7B6152",
"s 	c #6C584E",
"t 	c #6B574D",
"u 	c #68554D",
"v 	c #5E463E",
"w 	c #684E44",
"x 	c #725A4F",
"y 	c #6E584E",
"z 	c #62453B",
"A 	c #745E52",
"B 	c #725E53",
"C 	c #67544A",
"D 	c #5E463D",
"E 	c #7D5F4F",
"F 	c #7F6251",
"G 	c #765748",
"H 	c #684C3F",
"I 	c #7B5F4F",
"J 	c #795D50",
"K 	c #705244",
"L 	c #7E5E4C",
"M 	c #8D6955",
"N 	c #826453",
"O 	c #70574B",
"P 	c #72594D",
"Q 	c #70574C",
"R 	c #65463B",
"S 	c #6E4F43",
"T 	c #7B5F52",
"U 	c #795B4E",
"V 	c #694538",
"W 	c #806355",
"X 	c #7A6255",
"Y 	c #74594C",
"Z 	c #69493C",
"` 	c #7E604E",
" .	c #795C4C",
"..	c #765546",
"+.	c #674A3E",
"@.	c #785C4D",
"#.	c #76594B",
"$.	c #745446",
"%.	c #7F5C4B",
"&.	c #8A6552",
"*.	c #906A55",
"=.	c #7F604E",
"-.	c #6A5145",
";.	c #6E554A",
">.	c #6F5449",
",.	c #66453A",
"'.	c #6F5042",
").	c #795E50",
"!.	c #74584C",
"~.	c #674337",
"{.	c #7D6052",
"].	c #7A6256",
"^.	c #70564A",
"/.	c #68493D",
"(.	c #80604D",
"_.	c #7B5A49",
":.	c #745241",
"<.	c #64473A",
"[.	c #75594B",
"}.	c #775849",
"|.	c #745142",
"1.	c #7E5A48",
"2.	c #8D6854",
"3.	c #946F59",
"4.	c #80604E",
"5.	c #6D5345",
"6.	c #6E5449",
"7.	c #654539",
"8.	c #714F41",
"9.	c #7C5E4F",
"0.	c #7A5D50",
"a.	c #684437",
"b.	c #77584A",
"c.	c #765C4F",
"d.	c #6D5347",
"e.	c #63493F",
"f.	c #765D4F",
"g.	c #72594C",
"h.	c #6B5043",
"i.	c #5C443B",
"j.	c #6C5449",
"k.	c #6E5448",
"l.	c #6D5145",
"m.	c #7F5B49",
"n.	c #916A56",
"o.	c #96705B",
"p.	c #815E4C",
"q.	c #6D4F41",
"r.	c #6D5146",
"s.	c #6E5147",
"t.	c #624439",
"u.	c #694C40",
"v.	c #74594B",
"w.	c #64443A",
"x.	c #694F44",
"y.	c #6E564C",
"z.	c #66534A",
"A.	c #514540",
"B.	c #585754",
"C.	c #56524F",
"D.	c #4F4A48",
"E.	c #464343",
"F.	c #544F4C",
"G.	c #58504D",
"H.	c #5B4E49",
"I.	c #785546",
"J.	c #916A55",
"K.	c #98715A",
"L.	c #835F4B",
"M.	c #6F4E40",
"N.	c #725245",
"O.	c #6F5044",
"P.	c #614338",
"Q.	c #544440",
"R.	c #5E514C",
"S.	c #5E4F49",
"T.	c #514542",
"U.	c #564E4B",
"V.	c #55504C",
"W.	c #4F4E4C",
"X.	c #424848",
"Y.	c #755646",
"Z.	c #6C4C3F",
"`.	c #624337",
" +	c #745546",
".+	c #765648",
"++	c #755546",
"@+	c #7E5947",
"#+	c #946D56",
"$+	c #966D57",
"%+	c #805C49",
"&+	c #725041",
"*+	c #725244",
"=+	c #724F40",
"-+	c #684234",
";+	c #6C483B",
">+	c #7C5A4A",
",+	c #7E5A49",
"'+	c #6D4739",
")+	c #725345",
"!+	c #735749",
"~+	c #6B5044",
"{+	c #614E44",
"]+	c #825B48",
"^+	c #7A523F",
"/+	c #744B3A",
"(+	c #6A4332",
"_+	c #7D5745",
":+	c #815B48",
"<+	c #7C5645",
"[+	c #815A47",
"}+	c #8F6751",
"|+	c #8F664F",
"1+	c #7A5542",
"2+	c #745444",
"3+	c #725142",
"4+	c #704D3E",
"5+	c #694132",
"6+	c #754B39",
"7+	c #865E4A",
"8+	c #835C49",
"9+	c #734836",
"0+	c #7A5443",
"a+	c #744F3F",
"b+	c #724C3B",
"c+	c #845C47",
"d+	c #794F3B",
"e+	c #734937",
"f+	c #6B4535",
"g+	c #805846",
"h+	c #845C48",
"i+	c #7C5442",
"j+	c #805843",
"k+	c #8F654E",
"l+	c #8B6049",
"m+	c #795341",
"n+	c #765545",
"o+	c #735141",
"p+	c #714D3D",
"q+	c #6D4332",
"r+	c #784B38",
"s+	c #875C46",
"t+	c #7E5541",
"u+	c #704533",
"v+	c #7C5543",
"w+	c #805B48",
"x+	c #7A5340",
"y+	c #7B4F3B",
"z+	c #825A43",
"A+	c #80543D",
"B+	c #754936",
"C+	c #6C4434",
"D+	c #7D5441",
"E+	c #835843",
"F+	c #7D5341",
"G+	c #805641",
"H+	c #906349",
"I+	c #8C5E45",
"J+	c #7D5643",
"K+	c #755343",
"L+	c #724D3C",
"M+	c #744C3B",
"N+	c #774A36",
"O+	c #855741",
"P+	c #7F533E",
"Q+	c #714432",
"R+	c #7F5440",
"S+	c #815744",
"T+	c #7A503D",
"U+	c #7E533D",
"V+	c #82553E",
"W+	c #764C38",
"X+	c #6B4332",
"Y+	c #7B503D",
"Z+	c #82543F",
"`+	c #7C513E",
" @	c #805440",
".@	c #8D5E45",
"+@	c #8B5C43",
"@@	c #7E5642",
"#@	c #745140",
"$@	c #714C3C",
"%@	c #734C3B",
"&@	c #714635",
"*@	c #784B37",
"=@	c #865942",
"-@	c #754734",
";@	c #825540",
">@	c #845743",
",@	c #794D3A",
"'@	c #6D402F",
")@	c #7C503A",
"!@	c #7E5039",
"~@	c #774B37",
"{@	c #794E3A",
"]@	c #82543D",
"^@	c #7B503C",
"/@	c #7B4E39",
"(@	c #8D5D43",
"_@	c #916147",
":@	c #7F5641",
"<@	c #75513F",
"[@	c #724D3E",
"}@	c #71493A",
"|@	c #855841",
"1@	c #845640",
"2@	c #744632",
"3@	c #81533D",
"4@	c #855842",
"5@	c #7C503C",
"6@	c #72422F",
"7@	c #865941",
"8@	c #794D39",
"9@	c #6A4231",
"0@	c #7A4E3A",
"a@	c #81523C",
"b@	c #784D3A",
"c@	c #7D503A",
"d@	c #926247",
"e@	c #94664C",
"f@	c #734F3E",
"g@	c #734D3C",
"h@	c #744E3F",
"i@	c #734B3A",
"j@	c #764936",
"k@	c #835540",
"l@	c #875842",
"m@	c #774734",
"n@	c #7B4E3A",
"o@	c #845741",
"p@	c #7E513E",
"q@	c #734533",
"r@	c #7F553F",
"s@	c #895B43",
"t@	c #7A4C38",
"u@	c #6F4433",
"v@	c #7D513C",
"w@	c #82523D",
"x@	c #794D3B",
"y@	c #97684D",
"z@	c #97694F",
"A@	c #7D543F",
"B@	c #724E3D",
"C@	c #734E3D",
"D@	c #774F3E",
"E@	c #724938",
"F@	c #754A37",
"G@	c #82533D",
"H@	c #875740",
"I@	c #784835",
"J@	c #7D513E",
"K@	c #6D3F2D",
"L@	c #7A4E39",
"M@	c #83553D",
"N@	c #794B37",
"O@	c #714736",
"P@	c #7E513C",
"Q@	c #784D3B",
"R@	c #7F543F",
"S@	c #966950",
"T@	c #7C533F",
"U@	c #765342",
"V@	c #745040",
"W@	c #755040",
"X@	c #6D4637",
"Y@	c #724736",
"Z@	c #83533E",
"`@	c #87553E",
" #	c #754632",
".#	c #794C38",
"+#	c #815542",
"@#	c #774D3B",
"##	c #6E3F2C",
"$#	c #764833",
"%#	c #7C4D36",
"&#	c #6D4536",
"*#	c #7F513B",
"=#	c #7D523E",
"-#	c #92664E",
";#	c #93674F",
">#	c #79523E",
",#	c #735241",
"'#	c #704E40",
")#	c #735041",
"!#	c #6C4638",
"~#	c #6F4534",
"{#	c #81533E",
"]#	c #85553E",
"^#	c #70422F",
"/#	c #774C3A",
"(#	c #7E5441",
"_#	c #6E412E",
":#	c #724631",
"<#	c #774833",
"[#	c #754735",
"}#	c #6D4434",
"|#	c #774B38",
"1#	c #794E3C",
"2#	c #835943",
"3#	c #895E48",
"4#	c #754F3C",
"5#	c #705141",
"6#	c #6C4F42",
"7#	c #705143",
"8#	c #6C483A",
"9#	c #6D4534",
"0#	c #7F523D",
"a#	c #704230",
"b#	c #794E3B",
"c#	c #805643",
"d#	c #754D3C",
"e#	c #693E2D",
"f#	c #734632",
"g#	c #74442F",
"h#	c #744532",
"i#	c #673D2E",
"j#	c #764937",
"k#	c #7E513D",
"l#	c #794F3C",
"m#	c #734E3C",
"n#	c #715648",
"o#	c #7F5D4A",
"p#	c #744E3B",
"q#	c #684B3D",
"r#	c #624F44",
"s#	c #665449",
"t#	c #69483A",
"u#	c #7D503C",
"v#	c #764C3A",
"w#	c #815845",
"x#	c #764F3E",
"y#	c #61382A",
"z#	c #734733",
"A#	c #774733",
"B#	c #734633",
"C#	c #653B2C",
"D#	c #734532",
"E#	c #7F503B",
"F#	c #6A4F42",
"G#	c #616861",
"H#	c #726053",
"I#	c #714D3C",
"J#	c #614B3F",
"K#	c #5A5C55",
"L#	c #625F57",
"M#	c #65493D",
"N#	c #6A4433",
"O#	c #7E5440",
"P#	c #6B3F2D",
"Q#	c #774D3A",
"R#	c #7E5744",
"S#	c #754E3E",
"T#	c #5E3628",
"U#	c #714633",
"V#	c #754631",
"W#	c #724634",
"X#	c #633B2C",
"Y#	c #6C3F2D",
"Z#	c #7A4B36",
"`#	c #665247",
" $	c #5E7C78",
".$	c #636F68",
"+$	c #695042",
"@$	c #564C45",
"#$	c #576965",
"$$	c #607671",
"%$	c #605047",
"&$	c #684333",
"*$	c #6C412F",
"=$	c #7B5544",
"-$	c #5F382A",
";$	c #754935",
">$	c #794933",
",$	c #724430",
"'$	c #6A3E2B",
")$	c #7B4C36",
"!$	c #695347",
"~$	c #5D7C78",
"{$	c #5E6F68",
"]$	c #655144",
"^$	c #4E504D",
"/$	c #56726F",
"($	c #628682",
"_$	c #62534B",
":$	c #684030",
"<$	c #7C513D",
"[$	c #7A503C",
"}$	c #693F2E",
"|$	c #78503D",
"1$	c #7A5544",
"2$	c #75503F",
"3$	c #60372A",
"4$	c #734631",
"5$	c #77442F",
"6$	c #73432E",
"7$	c #5D3627",
"8$	c #6A3C2A",
"9$	c #794A33",
"0$	c #744B37",
"a$	c #614A3E",
"b$	c #536862",
"c$	c #5D655E",
"d$	c #664D41",
"e$	c #4A5E5A",
"f$	c #56726E",
"g$	c #5E4D44",
"h$	c #674030",
"i$	c #7B513D",
"j$	c #784E3B",
"k$	c #673F2F",
"l$	c #77503E",
"m$	c #78503E",
"n$	c #5B3527",
"o$	c #6D3E2A",
"p$	c #713D28",
"q$	c #6E3D29",
"r$	c #5D3628",
"s$	c #6C3E2C",
"t$	c #7C4D37",
"u$	c #734B38",
"v$	c #624130",
"w$	c #5A4B3F",
"x$	c #6D5041",
"y$	c #6E4939",
"z$	c #5D4439",
"A$	c #51443B",
"B$	c #564C43",
"C$	c #604134",
"D$	c #6A4130",
"E$	c #663E2F",
"F$	c #734A38",
"G$	c #7C5541",
"H$	c #5C3628",
"I$	c #683924",
"J$	c #6D3822",
"K$	c #683724",
"L$	c #5B3528",
"M$	c #6B3D2A",
"N$	c #794B36",
"O$	c #724A39",
"P$	c #694230",
"Q$	c #6D4937",
"R$	c #7A513C",
"S$	c #754D39",
"T$	c #6D4939",
"U$	c #5F3F30",
"V$	c #5C4033",
"W$	c #633D2E",
"X$	c #6A3F2D",
"Y$	c #7F523C",
"Z$	c #7E523D",
"`$	c #683F2F",
" %	c #784C39",
".%	c #5E382A",
"+%	c #653520",
"@%	c #6A351F",
"#%	c #683825",
"$%	c #5D372A",
"%%	c #6A3C29",
"&%	c #70412C",
"*%	c #6C4331",
"=%	c #6D4330",
"-%	c #80513A",
";%	c #87573E",
">%	c #794F39",
",%	c #684231",
"'%	c #684232",
")%	c #643D2D",
"!%	c #6B3E2B",
"~%	c #80513B",
"{%	c #7D503B",
"]%	c #683D2B",
"^%	c #774B36",
"/%	c #7E523E",
"(%	c #7A4F3A",
"_%	c #613928",
":%	c #63331E",
"<%	c #6B351F",
"[%	c #6A3A27",
"}%	c #5D3729",
"|%	c #6B3D29",
"1%	c #6E3F2A",
"2%	c #693F2D",
"3%	c #83533B",
"4%	c #88573C",
"5%	c #7C4F39",
"6%	c #6C4735",
"7%	c #6C4634",
"8%	c #663D2D",
"9%	c #6A3C28",
"0%	c #7F4E37",
"a%	c #7D4D37",
"b%	c #683B29",
"c%	c #764831",
"d%	c #794E39",
"e%	c #643B2B",
"f%	c #63321C",
"g%	c #67311B",
"h%	c #683723",
"i%	c #5B3325",
"j%	c #673926",
"k%	c #6B3B27",
"l%	c #623826",
"m%	c #663A25",
"n%	c #7F4C32",
"o%	c #855237",
"p%	c #654130",
"q%	c #673F2E",
"r%	c #603626",
"s%	c #663521",
"t%	c #7C4930",
"u%	c #784730",
"v%	c #673B29",
"w%	c #70422E",
"x%	c #784B36",
"y%	c #794A36",
"z%	c #5F3626",
"A%	c #67351F",
"B%	c #6B361F",
"C%	c #6F3D28",
"D%	c #5D3525",
"E%	c #653825",
"F%	c #6D3F2A",
"G%	c #653A27",
"H%	c #633621",
"I%	c #7C472B",
"J%	c #844D32",
"K%	c #794A35",
"L%	c #634030",
"M%	c #603828",
"N%	c #592E1E",
"O%	c #61311D",
"P%	c #77442B",
"Q%	c #76452D",
"R%	c #683C2A",
"S%	c #6C402C",
"T%	c #724531",
"U%	c #6F432E",
"V%	c #5A3222",
"W%	c #683720",
"X%	c #6B341D",
"Y%	c #6C3A25",
"Z%	c #5C3527",
"`%	c #693C28",
" &	c #73442F",
".&	c #643A28",
"+&	c #60321E",
"@&	c #773F23",
"#&	c #7B4328",
"$&	c #72442F",
"%&	c #624031",
"&&	c #5E3322",
"*&	c #562919",
"=&	c #5E2F1B",
"-&	c #764329",
";&	c #75452C",
">&	c #663A27",
",&	c #6D402B",
"'&	c #6A3F2B",
")&	c #563120",
"!&	c #653621",
"~&	c #65301A",
"{&	c #673725",
"]&	c #583427",
"^&	c #6B3F2B",
"/&	c #70432E",
"(&	c #5E3625",
"_&	c #5C2E1A",
":&	c #71361B",
"<&	c #763C21",
"[&	c #744631",
"}&	c #644334",
"|&	c #643C2B",
"1&	c #603423",
"2&	c #572A1A",
"3&	c #5D2E1A",
"4&	c #703A21",
"5&	c #6F3C21",
"6&	c #5E3422",
"7&	c #603625",
"8&	c #673A25",
"9&	c #653A26",
"0&	c #502E1F",
"a&	c #5B3324",
"b&	c #602F1E",
"c&	c #613728",
"d&	c #53382E",
"e&	c #653E2E",
"f&	c #663F2E",
"g&	c #5D3A2B",
"h&	c #5B2F1D",
"i&	c #6F3318",
"j&	c #763A1F",
"k&	c #72422D",
"l&	c #604031",
"m&	c #5F3726",
"n&	c #5F3321",
"o&	c #522819",
"p&	c #542A1C",
"q&	c #643522",
"r&	c #633622",
"s&	c #553225",
"t&	c #583527",
"u&	c #5D392A",
"v&	c #3C2C27",
"w&	c #453330",
"x&	c #4A302D",
"y&	c #493734",
"z&	c #423B39",
"A&	c #4E3C37",
"B&	c #4D3B36",
"C&	c #4A3B36",
"D&	c #583122",
"E&	c #6C3218",
"F&	c #72412C",
"G&	c #5C3B2C",
"H&	c #583121",
"I&	c #5B3221",
"J&	c #512C20",
"K&	c #432C28",
"L&	c #483633",
"M&	c #513A34",
"N&	c #473935",
"O&	c #493C38",
"P&	c #4C3D37",
"Q&	c #343131",
"R&	c #452A26",
"S&	c #4B2723",
"T&	c #472D29",
"U&	c #43332E",
"V&	c #573C30",
"W&	c #573C31",
"X&	c #4A372F",
"Y&	c #5A3525",
"Z&	c #6D341A",
"`&	c #743A20",
" *	c #5E3F30",
".*	c #4E2A1C",
"+*	c #532C1D",
"@*	c #512E22",
"#*	c #4C2F25",
"$*	c #4C322A",
"%*	c #593A2C",
"&*	c #51382E",
"**	c #55382D",
"=*	c #5C3D30",
"-*	c #5A3B2E",
";*	c #3D2D27",
">*	c #552D1F",
",*	c #5F2A17",
"'*	c #5A3122",
")*	c #4F372B",
"!*	c #654535",
"~*	c #664B3D",
"{*	c #564338",
"]*	c #5E3D2C",
"^*	c #6C371D",
"/*	c #713920",
"(*	c #734935",
"_*	c #5E4234",
":*	c #4A2A1D",
"<*	c #4C291C",
"[*	c #503225",
"}*	c #553629",
"|*	c #523B31",
"1*	c #603D2C",
"2*	c #5A3B2C",
"3*	c #5C3A29",
"4*	c #643D2A",
"5*	c #613A27",
"6*	c #3D2821",
"7*	c #5F3929",
"8*	c #632E19",
"9*	c #5E3321",
"0*	c #63483B",
"a*	c #5D5048",
"b*	c #524B44",
"c*	c #604232",
"d*	c #6F3E25",
"e*	c #73432B",
"f*	c #724D3B",
"g*	c #5C4436",
"h*	c #4D3327",
"i*	c #4D3326",
"j*	c #513B2E",
"k*	c #533B31",
"l*	c #494541",
"m*	c #5A3D31",
"n*	c #5A3C2E",
"o*	c #5C3B2B",
"p*	c #5D3927",
"q*	c #5E3724",
"r*	c #472D20",
"s*	c #623E2C",
"t*	c #663722",
"u*	c #633C2A",
"v*	c #4D382E",
"w*	c #614C40",
"x*	c #675447",
"y*	c #5C4D42",
"z*	c #604434",
"A*	c #71452E",
"B*	c #764C36",
"C*	c #71523F",
"D*	c #5B4A3E",
"E*	c #53453B",
"F*	c #4F4035",
"G*	c #534439",
"H*	c #573F33",
"I*	c #583D31",
"J*	c #5B3C2C",
"K*	c #573C2F",
"L*	c #5B3F30",
"M*	c #593929",
"N*	c #5B3A2A",
"O*	c #463124",
"P*	c #5F4335",
"Q*	c #644333",
"R*	c #62483B",
"S*	c #4B4138",
"T*	c #5D5247",
"U*	c #61554A",
"V*	c #554B40",
"W*	c #5B483A",
"X*	c #6A4A39",
"Y*	c #6D4D3C",
"Z*	c #695345",
"`*	c #5F5C52",
" =	c #595C55",
".=	c #534F46",
"+=	c #514C42",
"@=	c #55473D",
"#=	c #5D473B",
"$=	c #544134",
"%=	c #533F33",
"&=	c #544034",
"*=	c #524035",
"==	c #413830",
"-=	c #4A473E",
";=	c #51483F",
">=	c #4D4D46",
",=	c #3E4C47",
"'=	c #47544E",
")=	c #47514B",
"!=	c #424E47",
"~=	c #434A42",
"{=	c #4E4D43",
"]=	c #4F4F46",
"^=	c #4D5048",
"/=	c #3F514C",
"(=	c #404F49",
"_=	c #41504A",
":=	c #444F49",
"<=	c #4A504A",
"[=	c #4C524A",
"}=	c #444D46",
"|=	c #3E4842",
"1=	c #3D4843",
"2=	c #3A4A47",
"3=	c #344B48",
"  . + @ # $ % & * = - ; ; ; ; ; ; ; ; ; ; ; ; ; ; ; ; ; > , ' ) ! ~ { ] ^ / ( _ ",
": < [ } | 1 2 3 4 5 6 ; ; ; ; ; ; ; ; ; ; ; ; ; ; ; ; ; 7 8 9 0 a b c d e f g h ",
"i j k l m m n o p q r ; ; ; ; ; ; ; ; ; ; ; ; ; ; ; ; ; s t u v w x y z A B C D ",
"E F G H I J K L M M N ; ; ; ; ; ; ; ; ; ; ; ; ; ; ; ; ; O P Q R S T U V W X Y Z ",
"`  ...+.@.#.$.%.&.*.=.; ; ; ; ; ; ; ; ; ; ; ; ; ; ; ; ; -.;.>.,.'.).!.~.{.].^./.",
"(._.:.<.[.}.|.1.2.3.4.; ; ; ; ; ; ; ; ; ; ; ; ; ; ; ; ; 5.6.>.7.8.9.0.a.b.c.d.e.",
"f.g.h.i.j.k.l.m.n.o.p.; ; ; ; ; ; ; ; ; ; ; ; ; ; ; ; ; q.r.s.t.u.v.#.w.x.y.z.A.",
"B.C.D.E.F.G.H.I.J.K.L.; ; ; ; ; ; ; ; ; ; ; ; ; ; ; ; ; M.N.O.P.Q.R.S.T.U.V.W.X.",
"v.Y.Z.`. +.+++@+#+$+%+; ; ; ; ; ; ; ; ; ; ; ; ; ; ; ; ; &+*+=+-+;+>+,+'+)+!+~+{+",
"]+^+/+(+_+:+<+[+}+|+1+; ; ; ; ; ; ; ; ; ; ; ; ; ; ; ; ; 2+3+4+5+6+7+8+9+0+1.a+b+",
"c+d+e+f+g+h+i+j+k+l+m+; ; ; ; ; ; ; ; ; ; ; ; ; ; ; ; ; n+o+p+q+r+s+t+u+v+w+x+y+",
"z+A+B+C+D+E+F+G+H+I+J+; ; ; ; ; ; ; ; ; ; ; ; ; ; ; ; ; K+L+M+u+N+O+P+Q+R+S+T+B+",
"U+V+W+X+Y+Z+`+ @.@+@@@; ; ; ; ; ; ; ; ; ; ; ; ; ; ; ; ; #@$@%@&@*@=@O+-@;@>@,@'@",
")@!@~@(+{@]@^@/@(@_@:@; ; ; ; ; ; ; ; ; ; ; ; ; ; ; ; ; <@[@=+}@~@|@1@2@3@4@5@6@",
"U+7@8@9@0@a@b@c@d@e@@@; ; ; ; ; ; ; ; ; ; ; ; ; ; ; ; ; f@g@h@i@j@k@l@m@n@o@p@q@",
"r@s@t@u@v@w@x@A+y@z@A@; ; ; ; ; ; ; ; ; ; ; ; ; ; ; ; ; B@C@D@E@F@G@H@I@t@o@J@K@",
"L@M@N@O@P@G@Q@R@z@S@T@; ; ; ; ; ; ; ; ; ; ; ; ; ; ; ; ; U@V@W@X@Y@Z@`@ #.#+#@###",
"$#%#-@&#8@*#Q@=#-#;#>#; ; ; ; ; ; ; ; ; ; ; ; ; ; ; ; ; ,#'#)#!#~#{#]#^#/#(#@#_#",
":#<#[#}#|#n@1#Q@2#3#4#; ; ; ; ; ; ; ; ; ; ; ; ; ; ; ; ; 5#6#7#8#9#0#Z@a#b#c#d#e#",
"f#g#h#i#j#k#l#m#n#o#p#; ; ; ; ; ; ; ; ; ; ; ; ; ; ; ; ; q#r#s#t#C+R+u#'@v#w#x#y#",
"z#A#B#C#D#E#l#F#G#H#I#; ; ; ; ; ; ; ; ; ; ; ; ; ; ; ; ; J#K#L#M#N#O#u#P#Q#R#S#T#",
"U#V#W#X#Y#Z#Q@`# $.$+$; ; ; ; ; ; ; ; ; ; ; ; ; ; ; ; ; @$#$$$%$&$`+0@*$D+=$C@-$",
";$>$,$-$'$)$|#!$~${$]$; ; ; ; ; ; ; ; ; ; ; ; ; ; ; ; ; ^$/$($_$:$<$[$}$|$1$2$3$",
"4$5$6$7$8$9$0$a$b$c$d$; ; ; ; ; ; ; ; ; ; ; ; ; ; ; ; ; ; e$f$g$h$i$j$k$l$_+m$n$",
"o$p$q$r$s$t$u$v$w$x$y$; ; ; ; ; ; ; ; ; ; ; ; ; ; ; ; ; z$A$B$C$D$y+{@E$F$G$m$H$",
"I$J$K$L$M$N$O$P$Q$R$S$; ; ; ; ; ; ; ; ; ; ; ; ; ; ; ; ; T$U$V$W$X$Y$Z$`$ %O#l#.%",
"+%@%#%$%%%&%*%=%-%;%>%; ; ; ; ; ; ; ; ; ; ; ; ; ; ; ; ; Q$,%'%)%!%~%{%]%^%/%(%_%",
":%<%[%}%|%1%2%=%3%4%5%; ; ; ; ; ; ; ; ; ; ; ; ; ; ; ; ; 6%X+7%8%9%0%a%b%c%c@d%e%",
"f%g%h%i%j%k%l%m%n%o%N$; ; ; ; ; ; ; ; ; ; ; ; ; ; ; ; ; p%q%(+r%s%t%u%v%w%x%y%z%",
"A%B%C%D%E%F%G%H%I%J%K%; ; ; ; ; ; ; ; ; ; ; ; ; ; ; ; ; L%M%r%N%O%P%Q%R%S%T%U%V%",
"W%X%Y%Z%`% &.&+&@&#&$&; ; ; ; ; ; ; ; ; ; ; ; ; ; ; ; ; %&M%&&*&=&-&;&G%>&,&'&)&",
"!&~&{&]&^&/&(&_&:&<&[&; ; ; ; ; ; ; ; ; ; ; ; ; ; ; ; ; }&|&1&2&3&4&5&6&7&8&9&0&",
"a&b&c&d&e&f&g&h&i&j&k&; ; ; ; ; ; ; ; ; ; ; ; ; ; ; ; ; l&m&n&o&p&q&r&s&t&n$u&v&",
"w&x&y&z&A&B&C&D&E&<&F&; ; ; ; ; ; ; ; ; ; ; ; ; ; ; ; ; G&H&I&J&K&L&M&N&O&C&P&Q&",
"R&S&T&U&V&W&X&Y&Z&`&[&; ; ; ; ; ; ; ; ; ; ; ; ; ; ; ; ;  *.*+*@*#*$*%*&***=*-*;*",
">*,*'*)*!*~*{*]*^*/*(*; ; ; ; ; ; ; ; ; ; ; ; ; ; ; ; ; _*:*<*[*}*|*1*2*3*4*5*6*",
"7*8*9*)*0*a*b*c*d*e*f*; ; ; ; ; ; ; ; ; ; ; ; ; ; ; ; ; g*h*i*j*k*l*m*n*o*p*q*r*",
"s*t*u*v*w*x*y*z*A*B*C*; ; ; ; ; ; ; ; ; ; ; ; ; ; ; ; ; D*E*F*G*H*I*J*K*L*M*N*O*",
"P*Q*R*S*T*U*V*W*X*Y*Z*; ; ; ; ; ; ; ; ; ; ; ; ; ; ; ; ; `* =.=+=@=#=g*$=%=&=*===",
"-=;=>=,='=)=!=~={=]=^=; ; ; ; ; ; ; ; ; ; ; ; ; ; ; ; ; )=/=(=_=:=<=[=}=|=1=2=3="};
