/* XPM */
static char * player_xpm[] = {
"40 40 576 2",
"  	c #4C545F",
". 	c #122606",
"+ 	c #0D1809",
"@ 	c #1D1622",
"# 	c #14250C",
"$ 	c #191C1A",
"% 	c #543D61",
"& 	c #3A2B43",
"* 	c #1F1825",
"= 	c #594167",
"- 	c #725485",
"; 	c #32273B",
"> 	c #0B1A05",
", 	c #152C08",
"' 	c #221827",
") 	c #573F64",
"! 	c #6E5180",
"~ 	c #79598C",
"{ 	c #31253A",
"] 	c #302438",
"^ 	c #2B2431",
"/ 	c #1D1722",
"( 	c #553E62",
"_ 	c #5D446B",
": 	c #825F96",
"< 	c #815F95",
"[ 	c #463452",
"} 	c #1A1C1C",
"| 	c #091503",
"1 	c #0A1505",
"2 	c #3F2E4A",
"3 	c #684D79",
"4 	c #463351",
"5 	c #312439",
"6 	c #563F63",
"7 	c #5A4268",
"8 	c #644974",
"9 	c #8C67A2",
"0 	c #8D68A3",
"a 	c #6E507F",
"b 	c #4B3757",
"c 	c #192914",
"d 	c #101511",
"e 	c #0C1906",
"f 	c #060C04",
"g 	c #3B2B45",
"h 	c #60476F",
"i 	c #7E5C91",
"j 	c #89659E",
"k 	c #78598B",
"l 	c #5D446C",
"m 	c #564064",
"n 	c #584065",
"o 	c #6D507D",
"p 	c #916BA7",
"q 	c #815F94",
"r 	c #402F4A",
"s 	c #0D1909",
"t 	c #4C3757",
"u 	c #242029",
"v 	c #0F1E08",
"w 	c #0A1008",
"x 	c #0F2007",
"y 	c #2E2236",
"z 	c #563F64",
"A 	c #5E456D",
"B 	c #77588A",
"C 	c #7D5C90",
"D 	c #614770",
"E 	c #523B5E",
"F 	c #5B4369",
"G 	c #775889",
"H 	c #906BA7",
"I 	c #7E5D91",
"J 	c #31233A",
"K 	c #6B4E7B",
"L 	c #483554",
"M 	c #32253A",
"N 	c #4F395C",
"O 	c #281F2E",
"P 	c #4F3A5B",
"Q 	c #4C3758",
"R 	c #574065",
"S 	c #503A5C",
"T 	c #846198",
"U 	c #765789",
"V 	c #402F4B",
"W 	c #8A66A0",
"X 	c #7C5B90",
"Y 	c #624871",
"Z 	c #533D60",
"` 	c #4D3859",
" .	c #553F63",
"..	c #4E395A",
"+.	c #594166",
"@.	c #6A4E7A",
"#.	c #805E93",
"$.	c #61476F",
"%.	c #5E456C",
"&.	c #86629A",
"*.	c #2A1E31",
"=.	c #755687",
"-.	c #654A75",
";.	c #513B5E",
">.	c #3B2B44",
",.	c #3D303E",
"'.	c #544A44",
").	c #685D4F",
"!.	c #5A4F46",
"~.	c #403244",
"{.	c #4A3655",
"].	c #5C446B",
"^.	c #684C79",
"/.	c #5A4369",
"(.	c #7C5B8F",
"_.	c #8E69A4",
":.	c #41304B",
"<.	c #1B1E1D",
"[.	c #523C5F",
"}.	c #694D7A",
"|.	c #7A5A8D",
"1.	c #6C4F7C",
"2.	c #382A3E",
"3.	c #82765F",
"4.	c #C8B793",
"5.	c #EAD6AC",
"6.	c #F4DFB4",
"7.	c #EDD9AE",
"8.	c #B9A988",
"9.	c #4B4040",
"0.	c #33253B",
"a.	c #34253C",
"b.	c #856199",
"c.	c #745586",
"d.	c #191C1B",
"e.	c #0B1308",
"f.	c #372840",
"g.	c #584066",
"h.	c #4E453F",
"i.	c #EAD7AC",
"j.	c #FBE6B9",
"k.	c #F3DEB3",
"l.	c #C1B08E",
"m.	c #EDD9AF",
"n.	c #F7E3B6",
"o.	c #BAAB89",
"p.	c #52493F",
"q.	c #998B70",
"r.	c #5E5447",
"s.	c #634872",
"t.	c #725384",
"u.	c #19320A",
"v.	c #0F170D",
"w.	c #3C2B47",
"x.	c #706553",
"y.	c #F3DFB3",
"z.	c #F0DCB1",
"A.	c #9C8F72",
"B.	c #756B55",
"C.	c #C6B591",
"D.	c #EEDAAF",
"E.	c #E7D4AA",
"F.	c #DBC8A1",
"G.	c #716752",
"H.	c #3B2D3E",
"I.	c #664A76",
"J.	c #44324F",
"K.	c #091604",
"L.	c #221828",
"M.	c #42304D",
"N.	c #483553",
"O.	c #3B2B43",
"P.	c #776C57",
"Q.	c #F2DEB3",
"R.	c #F6E1B5",
"S.	c #A39577",
"T.	c #2E291F",
"U.	c #A7997A",
"V.	c #DDCAA3",
"W.	c #5C5342",
"X.	c #82765E",
"Y.	c #A59779",
"Z.	c #433545",
"`.	c #694D79",
" +	c #242627",
".+	c #181F17",
"++	c #3A2C3F",
"@+	c #483E40",
"#+	c #312A28",
"$+	c #7B715A",
"%+	c #E3D0A7",
"&+	c #FAE5B8",
"*+	c #93866B",
"=+	c #29241B",
"-+	c #D6C49E",
";+	c #9C8E71",
">+	c #655C48",
",+	c #EBD7AD",
"'+	c #978A6E",
")+	c #473452",
"!+	c #1E2412",
"~+	c #A29376",
"{+	c #D9C69F",
"]+	c #C4B390",
"^+	c #887C64",
"/+	c #C1B18F",
"(+	c #F9E4B7",
"_+	c #94876C",
":+	c #393328",
"<+	c #E6D2A9",
"[+	c #B3A484",
"}+	c #675D4A",
"|+	c #EFDBB0",
"1+	c #A89A7B",
"2+	c #231927",
"3+	c #383827",
"4+	c #DFCCA3",
"5+	c #AE9F7F",
"6+	c #DAC8A0",
"7+	c #AD9E7F",
"8+	c #A09276",
"9+	c #E5D1A8",
"0+	c #CAB894",
"a+	c #94876B",
"b+	c #F3DEB2",
"c+	c #E0CDA4",
"d+	c #C0AF8C",
"e+	c #796E57",
"f+	c #030602",
"g+	c #070E04",
"h+	c #2C2B1D",
"i+	c #B3A383",
"j+	c #C9B994",
"k+	c #E0CDA5",
"l+	c #9F9175",
"m+	c #978A6F",
"n+	c #EBD8AE",
"o+	c #F9E4B8",
"p+	c #F6E2B5",
"q+	c #D1BF99",
"r+	c #313022",
"s+	c #071303",
"t+	c #212515",
"u+	c #574B3D",
"v+	c #685E4B",
"w+	c #564D3D",
"x+	c #776D57",
"y+	c #756A55",
"z+	c #9A8C71",
"A+	c #E1CEA6",
"B+	c #F8E3B7",
"C+	c #E8D5AB",
"D+	c #6E654F",
"E+	c #0E1A06",
"F+	c #0C1905",
"G+	c #0E1406",
"H+	c #0F1906",
"I+	c #2C151A",
"J+	c #4D272F",
"K+	c #4F2931",
"L+	c #4D2930",
"M+	c #46252B",
"N+	c #605645",
"O+	c #9D8F73",
"P+	c #D9C6A0",
"Q+	c #DBC9A2",
"R+	c #81765E",
"S+	c #381F22",
"T+	c #241414",
"U+	c #1A0E0D",
"V+	c #3E2026",
"W+	c #47242B",
"X+	c #381B21",
"Y+	c #48242C",
"Z+	c #592E37",
"`+	c #562D35",
" @	c #584E3F",
".@	c #91856B",
"+@	c #95886D",
"@@	c #94876D",
"#@	c #8E8168",
"$@	c #433B2F",
"%@	c #3B2024",
"&@	c #3F2026",
"*@	c #131808",
"=@	c #121D08",
"-@	c #0E1B05",
";@	c #2E1D1B",
">@	c #542B33",
",@	c #61323C",
"'@	c #5E313A",
")@	c #4E2730",
"!@	c #3B1D23",
"~@	c #47342F",
"{@	c #615544",
"]@	c #3F392D",
"^@	c #474133",
"/@	c #403A2E",
"(@	c #28241F",
"_@	c #54493C",
":@	c #6E5C4C",
"<@	c #361B21",
"[@	c #412027",
"}@	c #47252B",
"|@	c #46242B",
"1@	c #1F1511",
"2@	c #1A1F0D",
"3@	c #3F2027",
"4@	c #582D36",
"5@	c #60323C",
"6@	c #70594C",
"7@	c #8D7D67",
"8@	c #272634",
"9@	c #252535",
"0@	c #272738",
"a@	c #2A2A3B",
"b@	c #61574D",
"c@	c #83705C",
"d@	c #582E37",
"e@	c #512A32",
"f@	c #181716",
"g@	c #3B2F3E",
"h@	c #2F212B",
"i@	c #3C1E25",
"j@	c #522D33",
"k@	c #99846C",
"l@	c #755C56",
"m@	c #3F3440",
"n@	c #2F2F42",
"o@	c #2C2C3F",
"p@	c #61554E",
"q@	c #927E67",
"r@	c #301A1E",
"s@	c #17190B",
"t@	c #142310",
"u@	c #4F4247",
"v@	c #584A53",
"w@	c #65555C",
"x@	c #282023",
"y@	c #0E0608",
"z@	c #3D2E2B",
"A@	c #986C70",
"B@	c #7C595D",
"C@	c #2E2733",
"D@	c #2E2E41",
"E@	c #322F40",
"F@	c #5E4549",
"G@	c #5F4546",
"H@	c #2D2123",
"I@	c #524449",
"J@	c #101612",
"K@	c #131C12",
"L@	c #57494F",
"M@	c #443A40",
"N@	c #63535A",
"O@	c #221D22",
"P@	c #080A0F",
"Q@	c #1C1618",
"R@	c #523A3D",
"S@	c #362527",
"T@	c #513A3E",
"U@	c #2F2833",
"V@	c #3E2F37",
"W@	c #7E5B5E",
"X@	c #705053",
"Y@	c #1E1718",
"Z@	c #3A3236",
"`@	c #0E1419",
" #	c #11201A",
".#	c #0F211D",
"+#	c #142C26",
"@#	c #162F33",
"##	c #112521",
"$#	c #1A320A",
"%#	c #1B360B",
"&#	c #0B1806",
"*#	c #251D27",
"=#	c #2F2533",
"-#	c #29212C",
";#	c #100C13",
">#	c #011C24",
",#	c #003745",
"'#	c #012C37",
")#	c #09181C",
"!#	c #2E4C55",
"~#	c #2E545F",
"{#	c #35606B",
"]#	c #3C6A76",
"^#	c #417684",
"/#	c #488494",
"(#	c #5193A4",
"_#	c #5AA3B6",
":#	c #5EABBE",
"<#	c #65B6CB",
"[#	c #6ABFD4",
"}#	c #71CCE2",
"|#	c #5BA6B9",
"1#	c #1F3E44",
"2#	c #162D0C",
"3#	c #072324",
"4#	c #071B14",
"5#	c #201C24",
"6#	c #54435A",
"7#	c #5A4862",
"8#	c #57465F",
"9#	c #342939",
"0#	c #02242E",
"a#	c #004455",
"b#	c #003E4D",
"c#	c #1C3C44",
"d#	c #67BACF",
"e#	c #77D5ED",
"f#	c #7ADBF4",
"g#	c #7BDDF6",
"h#	c #7DE1FA",
"i#	c #7FE3FD",
"j#	c #7FE4FD",
"k#	c #7FE4FE",
"l#	c #80E5FE",
"m#	c #80E5FF",
"n#	c #7EE2FC",
"o#	c #284E56",
"p#	c #11240B",
"q#	c #142D15",
"r#	c #003D4C",
"s#	c #01222C",
"t#	c #332837",
"u#	c #5B4963",
"v#	c #312636",
"w#	c #01242E",
"x#	c #004353",
"y#	c #022A35",
"z#	c #264952",
"A#	c #6EC6DC",
"B#	c #75D1E9",
"C#	c #74D0E7",
"D#	c #5FACC0",
"E#	c #173135",
"F#	c #142C14",
"G#	c #003847",
"H#	c #012029",
"I#	c #261D29",
"J#	c #58465F",
"K#	c #332838",
"L#	c #004354",
"M#	c #004151",
"N#	c #03222C",
"O#	c #224149",
"P#	c #3E6F7D",
"Q#	c #4B8695",
"R#	c #4E8A9B",
"S#	c #4E8B9B",
"T#	c #498392",
"U#	c #2D545D",
"V#	c #0C1C13",
"W#	c #0F2206",
"X#	c #01080B",
"Y#	c #030905",
"Z#	c #0C1209",
"`#	c #403345",
" $	c #56455D",
".$	c #524159",
"+$	c #2C2330",
"@$	c #021F28",
"#$	c #004152",
"$$	c #003442",
"%$	c #0B1C21",
"&$	c #2E5661",
"*$	c #386672",
"=$	c #3B6C79",
"-$	c #3E707E",
";$	c #427786",
">$	c #457B89",
",$	c #477E8D",
"'$	c #498291",
")$	c #498292",
"!$	c #4A8494",
"~$	c #4B8595",
"{$	c #4C8796",
"]$	c #457D8B",
"^$	c #24454D",
"/$	c #08140D",
"($	c #0E110B",
"_$	c #1F1B21",
":$	c #161118",
"<$	c #0A090F",
"[$	c #021016",
"}$	c #01212A",
"|$	c #03131A",
"1$	c #020203",
"2$	c #151620",
"3$	c #1B1D29",
"4$	c #181C26",
"5$	c #131820",
"6$	c #11181F",
"7$	c #0F1B20",
"8$	c #13282D",
"9$	c #1A3438",
"0$	c #1C373D",
"a$	c #203D44",
"b$	c #234249",
"c$	c #264850",
"d$	c #1A3338",
"e$	c #0C1C08",
"f$	c #1C370C",
"g$	c #080F07",
"h$	c #181821",
"i$	c #07070C",
"j$	c #12121B",
"k$	c #262636",
"l$	c #1C1C29",
"m$	c #15141E",
"n$	c #1E1E2B",
"o$	c #21212F",
"p$	c #0A100C",
"q$	c #1A340B",
"r$	c #0D1C07",
"s$	c #162C09",
"t$	c #090D0B",
"u$	c #1B1B26",
"v$	c #15151E",
"w$	c #1B1B27",
"x$	c #262635",
"y$	c #0B110D",
"z$	c #112407",
"A$	c #132609",
"B$	c #191924",
"C$	c #2D2D3E",
"D$	c #2C2C3E",
"E$	c #101616",
"F$	c #18300A",
"G$	c #0B0F0E",
"H$	c #1C1B27",
"I$	c #1E1E2A",
"J$	c #242332",
"K$	c #2E2D3F",
"L$	c #15161E",
"M$	c #0A110B",
"N$	c #22212D",
"O$	c #312F3F",
"P$	c #1A1B1F",
"Q$	c #142908",
"R$	c #102007",
"S$	c #292325",
"T$	c #43383F",
"U$	c #54474E",
"V$	c #6F5E66",
"W$	c #62535B",
"X$	c #171C13",
"Y$	c #181F12",
"Z$	c #504348",
"`$	c #7E6A72",
" %	c #67575E",
".%	c #17260D",
"+%	c #0B1505",
"@%	c #393033",
"#%	c #53454C",
"$%	c #6B5A61",
"%%	c #8A747D",
"&%	c #715F66",
"*%	c #17230F",
"=%	c #141D0D",
"-%	c #4E4146",
";%	c #76646B",
">%	c #6F5D64",
",%	c #17200F",
"'%	c #090E06",
")%	c #0C0C0A",
"!%	c #11100E",
"~%	c #171513",
"{%	c #11110D",
"]%	c #152908",
"^%	c #172E09",
"/%	c #15230C",
"(%	c #1C2A14",
"_%	c #1C2913",
"                                .                                               ",
"                              + @ #                                             ",
"                              $ % &                                             ",
"                              * = - ;                                           ",
"                    > ,       ' ) ! ~ {                                         ",
"                    ] ^       / ( _ : < [ }       |                             ",
"                  1 2 3 4 ] 5 4 6 7 8 9 0 a b c   d e                           ",
"                  f g h i j k l m n 7 o p j q r s t u                           ",
"              v w x y z A B j C D E = F G H I a J K L                           ",
"              M N O P Q = 7 A D _ R S = l T I T 7 U 6                           ",
"              V W X Y Z ` n =  .% ( Z ..+.@.#.$.%.&. .                          ",
"              *.=.p j -.;.>.,.'.).!.~.` {.].^./.(._.:.                          ",
"              <.[.}.|.1.2.3.4.5.6.7.8.9.b 0.a.#.b.c.d.                          ",
"              e.f.g.7 6 h.i.j.k.l.m.n.o.p.q.r.s.t.5                             ",
"              u.v.w.R [.x.y.j.z.A.B.C.D.E.F.G.H.I.J.                            ",
"              K.L.M.N.O.P.Q.j.j.R.S.T.U.V.W.X.Y.Z.`. +                          ",
"                .+++@+#+$+%+j.j.&+*+=+-+y.;+>+,+'+% )+                          ",
"                !+~+{+]+^+/+(+j.&+_+:+<+&+[+}+|+1+2+M                           ",
"                3+4+5+6+7+8+9+j.j.0+a+b+j.c+d+z.e+f+g+                          ",
"                h+i+j+k+l+m+7+n+j.o+p+j.j.j.&+q+r+s+                            ",
"                  t+u+v+w+x+y+z+A+B+j.j.j.j.C+D+E+                              ",
"              F+G+H+I+J+K+L+M+N+O+o.P+E.,+Q+R+S+T+                              ",
"              U+V+W+J+X+Y+Z+`+ @.@+@@@#@P.$@%@&@*@=@-@                          ",
"                ;@>@,@'@)@!@~@{@]@^@/@(@_@:@<@[@}@|@1@                          ",
"                  2@3@4@,@5@6@7@8@9@0@a@b@c@d@'@e@;@                            ",
"                  f@g@h@i@j@k@l@m@n@n@o@p@q@M+r@s@                              ",
"                t@u@v@w@x@y@z@A@B@C@D@E@F@G@H@I@J@                              ",
"                K@L@M@N@O@P@Q@R@S@T@U@V@W@X@Y@Z@`@ #.#+#@###                    ",
"            $#%#&#*#=#-#;#>#,#'#)#!#~#{#]#^#/#(#_#:#<#[#}#|#1#                  ",
"          2#3#4#5#6#7#8#9#0#a#b#c#d#e#f#g#h#i#j#k#l#m#m#m#n#d#o#p#              ",
"          q#r#s#t#7#u#7#v#w#a#x#y#z#(#A#B#B#B#B#B#B#B#B#B#B#C#D#E#              ",
"          F#G#H#I#J#u#7#K#s#L#M#N#O#P#Q#R#R#S#S#S#S#S#S#S#R#T#U#V#              ",
"          W#X#Y#Z#`# $.$+$@$#$$$%$&$*$=$-$;$>$,$'$)$!$~${$]$^$/$                ",
"                  ($_$:$<$[$}$|$1$2$3$4$5$6$7$8$9$0$a$b$c$d$e$                  ",
"                    f$g$h$i$j$k$l$m$n$o$o@D@k$p$      q$r$                      ",
"                    s$t$u$v$w$n@x$y$z$A$B$C$D$E$                                ",
"                    F$G$H$I$J$K$L$z$    M$N$O$P$Q$                              ",
"                    R$S$T$U$V$W$X$      Y$Z$`$ %.%                              ",
"                    +%@%#%$%%%&%*%      =%-%;%>%,%                              ",
"                      '%)%!%~%{%]%      ^%/%(%_%                                "};
