/* XPM */
static char * player_c_xpm[] = {
"40 40 645 2",
"  	c #4C545F",
". 	c #122606",
"+ 	c #0D1809",
"@ 	c #1D1622",
"# 	c #14250C",
"$ 	c #191C1A",
"% 	c #543D61",
"& 	c #3A2B43",
"* 	c #68696E",
"= 	c #968D8B",
"- 	c #A09399",
"; 	c #988899",
"> 	c #5A555A",
", 	c #0B1A05",
"' 	c #152C08",
") 	c #A69E9D",
"! 	c #E9E0DF",
"~ 	c #E8DDDB",
"{ 	c #E5D4D4",
"] 	c #E7D6D5",
"^ 	c #E8D1CC",
"/ 	c #B09C98",
"( 	c #4F5660",
"_ 	c #302438",
": 	c #2E2833",
"< 	c #B4A5A4",
"[ 	c #EAE1DF",
"} 	c #EAE2E0",
"| 	c #EAD9D9",
"1 	c #E9D4D3",
"2 	c #E9D0CE",
"3 	c #E9CBC6",
"4 	c #E6C0B8",
"5 	c #C1A5A3",
"6 	c #252626",
"7 	c #091503",
"8 	c #0A1505",
"9 	c #3F2E4A",
"0 	c #8C7785",
"a 	c #E7D5D2",
"b 	c #ECDDDC",
"c 	c #EBD6D6",
"d 	c #E8CFCD",
"e 	c #E6C6C3",
"f 	c #E3BAB6",
"g 	c #E0A79C",
"h 	c #DC9F94",
"i 	c #D69F94",
"j 	c #B08E8E",
"k 	c #4B3757",
"l 	c #192914",
"m 	c #101511",
"n 	c #0C1906",
"o 	c #060C04",
"p 	c #3D2F46",
"q 	c #D0B7B5",
"r 	c #E8CDC9",
"s 	c #E5C4C2",
"t 	c #E5BEBD",
"u 	c #DDADA9",
"v 	c #D59F96",
"w 	c #D09286",
"x 	c #CE8A7A",
"y 	c #CA8573",
"z 	c #CA8976",
"A 	c #C48E7E",
"B 	c #80618F",
"C 	c #402F4A",
"D 	c #0D1909",
"E 	c #4C3757",
"F 	c #242029",
"G 	c #0F1E08",
"H 	c #0A1008",
"I 	c #0F2007",
"J 	c #5B5054",
"K 	c #D9BCB6",
"L 	c #E1BDB7",
"M 	c #DDB1A9",
"N 	c #D3988E",
"O 	c #CD8F84",
"P 	c #C58475",
"Q 	c #C38271",
"R 	c #CD8C7E",
"S 	c #D18F7E",
"T 	c #CB8A78",
"U 	c #BD806C",
"V 	c #826785",
"W 	c #6E507F",
"X 	c #31233A",
"Y 	c #6B4E7B",
"Z 	c #483554",
"` 	c #32253A",
" .	c #4F395C",
"..	c #281F2E",
"+.	c #6A5A65",
"@.	c #CFACA5",
"#.	c #DBAFA4",
"$.	c #D3A193",
"%.	c #DFB0A9",
"&.	c #DDADA8",
"*.	c #D69B91",
"=.	c #D09185",
"-.	c #D89D93",
";.	c #D59385",
">.	c #CC8B79",
",.	c #C78B79",
"'.	c #8B6F82",
").	c #846198",
"!.	c #5A4268",
"~.	c #765789",
"{.	c #563F63",
"].	c #402F4B",
"^.	c #8A66A0",
"/.	c #7C5B90",
"(.	c #715D6E",
"_.	c #BC958A",
":.	c #CF9D8E",
"<.	c #D4A093",
"[.	c #D4A095",
"}.	c #C7897C",
"|.	c #BD7968",
"1.	c #BE7867",
"2.	c #B36B5C",
"3.	c #A2614F",
"4.	c #8C584A",
"5.	c #956456",
"6.	c #A47B7E",
"7.	c #6A556F",
"8.	c #5E456C",
"9.	c #86629A",
"0.	c #553F63",
"a.	c #2A1E31",
"b.	c #755687",
"c.	c #916BA7",
"d.	c #85678E",
"e.	c #BA9286",
"f.	c #D1A193",
"g.	c #C5988C",
"h.	c #8C5E54",
"i.	c #75483D",
"j.	c #7A4234",
"k.	c #995745",
"l.	c #914D3A",
"m.	c #57281A",
"n.	c #583224",
"o.	c #834A36",
"p.	c #AC715E",
"q.	c #81585E",
"r.	c #7C5B8F",
"s.	c #8E69A4",
"t.	c #41304B",
"u.	c #1B1E1D",
"v.	c #523C5F",
"w.	c #694D7A",
"x.	c #CA8E8D",
"y.	c #BF998E",
"z.	c #D1A396",
"A.	c #9D685B",
"B.	c #673B2F",
"C.	c #54372B",
"D.	c #4F2215",
"E.	c #9A635B",
"F.	c #A25F53",
"G.	c #693426",
"H.	c #794031",
"I.	c #A35D4D",
"J.	c #CA8A7B",
"K.	c #936674",
"L.	c #856199",
"M.	c #745586",
"N.	c #191C1B",
"O.	c #0B1308",
"P.	c #372840",
"Q.	c #574065",
"R.	c #D07569",
"S.	c #C09186",
"T.	c #D7A79B",
"U.	c #C1897D",
"V.	c #A26658",
"W.	c #824537",
"X.	c #794136",
"Y.	c #B5756E",
"Z.	c #CF908A",
"`.	c #9F5546",
" +	c #A3574E",
".+	c #C07268",
"++	c #C37C6D",
"@+	c #825C62",
"#+	c #725384",
"$+	c #312439",
"%+	c #19320A",
"&+	c #0F170D",
"*+	c #3C2B47",
"=+	c #B7675F",
"-+	c #C7948B",
";+	c #DDADA2",
">+	c #E4B4AF",
",+	c #DCA09B",
"'+	c #C1766A",
")+	c #A35D53",
"!+	c #CD8E88",
"~+	c #D99D99",
"{+	c #BA7268",
"]+	c #954941",
"^+	c #AC5F52",
"/+	c #AF6756",
"(+	c #704F45",
"_+	c #664A76",
":+	c #44324F",
"<+	c #091604",
"[+	c #221828",
"}+	c #42304D",
"|+	c #926F6C",
"1+	c #D89E96",
"2+	c #D5A296",
"3+	c #CC9187",
"4+	c #BE766A",
"5+	c #AA5C4D",
"6+	c #915249",
"7+	c #B87C78",
"8+	c #AE6B61",
"9+	c #A05B4D",
"0+	c #92493C",
"a+	c #89473A",
"b+	c #9F604C",
"c+	c #968369",
"d+	c #433545",
"e+	c #694D79",
"f+	c #242627",
"g+	c #181F17",
"h+	c #3A2C3F",
"i+	c #544C44",
"j+	c #DCABA5",
"k+	c #C39487",
"l+	c #AB756B",
"m+	c #A1655A",
"n+	c #874A3A",
"o+	c #824A43",
"p+	c #754139",
"q+	c #773F34",
"r+	c #7D4031",
"s+	c #864C3E",
"t+	c #76412B",
"u+	c #985D45",
"v+	c #C7B391",
"w+	c #978A6E",
"x+	c #473452",
"y+	c #1E2412",
"z+	c #A29376",
"A+	c #D9C69F",
"B+	c #B3A282",
"C+	c #B98A7C",
"D+	c #9E6A5C",
"E+	c #9B6050",
"F+	c #7B4838",
"G+	c #6B4039",
"H+	c #8A5B50",
"I+	c #8E5E52",
"J+	c #8E5E4D",
"K+	c #783F2F",
"L+	c #96553D",
"M+	c #925B45",
"N+	c #D9C7A1",
"O+	c #A89A7B",
"P+	c #231927",
"Q+	c #383827",
"R+	c #DFCCA3",
"S+	c #AE9F7F",
"T+	c #D0BF98",
"U+	c #AD8274",
"V+	c #9F6D60",
"W+	c #925F50",
"X+	c #985B46",
"Y+	c #97584F",
"Z+	c #9B5655",
"`+	c #944443",
" @	c #95453E",
".@	c #A15A48",
"+@	c #A36346",
"@@	c #8D6D58",
"#@	c #F0DCB1",
"$@	c #796E57",
"%@	c #030602",
"&@	c #070E04",
"*@	c #2C2B1D",
"=@	c #B3A383",
"-@	c #C9B994",
";@	c #E0CDA5",
">@	c #9E7F6D",
",@	c #8E675C",
"'@	c #885B4F",
")@	c #986352",
"!@	c #A96A59",
"~@	c #A4645A",
"{@	c #925349",
"]@	c #9C5646",
"^@	c #AB624E",
"/@	c #996047",
"(@	c #E2CEA6",
"_@	c #D1BF99",
":@	c #313022",
"<@	c #071303",
"[@	c #212515",
"}@	c #574B3D",
"|@	c #685E4B",
"1@	c #8A776D",
"2@	c #9E6F62",
"3@	c #896055",
"4@	c #83584A",
"5@	c #9D6A5C",
"6@	c #BE8074",
"7@	c #BB776B",
"8@	c #B16E5A",
"9@	c #9F624E",
"0@	c #A1856C",
"a@	c #E8D5AB",
"b@	c #6E654F",
"c@	c #0E1A06",
"d@	c #0C1905",
"e@	c #0E1406",
"f@	c #0F1906",
"g@	c #2C151A",
"h@	c #4D272F",
"i@	c #796668",
"j@	c #98695D",
"k@	c #724A40",
"l@	c #725043",
"m@	c #785446",
"n@	c #80564B",
"o@	c #885647",
"p@	c #7F5040",
"q@	c #6C4537",
"r@	c #A79076",
"s@	c #81765E",
"t@	c #381F22",
"u@	c #241414",
"v@	c #1A0E0D",
"w@	c #3E2026",
"x@	c #47242B",
"y@	c #381B21",
"z@	c #48242C",
"A@	c #592E37",
"B@	c #562D35",
"C@	c #584E3F",
"D@	c #91856B",
"E@	c #94866C",
"F@	c #8D7D65",
"G@	c #88745D",
"H@	c #7E634F",
"I@	c #745D54",
"J@	c #3B2024",
"K@	c #3F2026",
"L@	c #131808",
"M@	c #121D08",
"N@	c #0E1B05",
"O@	c #2E1D1B",
"P@	c #542B33",
"Q@	c #61323C",
"R@	c #5E313A",
"S@	c #4E2730",
"T@	c #3B1D23",
"U@	c #47342F",
"V@	c #615544",
"W@	c #3F392D",
"X@	c #474133",
"Y@	c #403A2E",
"Z@	c #28241F",
"`@	c #54493C",
" #	c #6E5C4C",
".#	c #361B21",
"+#	c #412027",
"@#	c #47252B",
"##	c #46242B",
"$#	c #1F1511",
"%#	c #1A1F0D",
"&#	c #3F2027",
"*#	c #582D36",
"=#	c #60323C",
"-#	c #70594C",
";#	c #8D7D67",
">#	c #272634",
",#	c #252535",
"'#	c #272738",
")#	c #2A2A3B",
"!#	c #61574D",
"~#	c #83705C",
"{#	c #582E37",
"]#	c #512A32",
"^#	c #181716",
"/#	c #3B2F3E",
"(#	c #2F212B",
"_#	c #3C1E25",
":#	c #522D33",
"<#	c #99846C",
"[#	c #755C56",
"}#	c #3F3440",
"|#	c #2F2F42",
"1#	c #2C2C3F",
"2#	c #61554E",
"3#	c #927E67",
"4#	c #46252B",
"5#	c #301A1E",
"6#	c #17190B",
"7#	c #142310",
"8#	c #4F4247",
"9#	c #584A53",
"0#	c #65555C",
"a#	c #282023",
"b#	c #0E0608",
"c#	c #3D2E2B",
"d#	c #986C70",
"e#	c #7C595D",
"f#	c #2E2733",
"g#	c #2E2E41",
"h#	c #322F40",
"i#	c #5E4549",
"j#	c #5F4546",
"k#	c #2D2123",
"l#	c #524449",
"m#	c #101612",
"n#	c #131C12",
"o#	c #57494F",
"p#	c #443A40",
"q#	c #63535A",
"r#	c #221D22",
"s#	c #080A0F",
"t#	c #1C1618",
"u#	c #523A3D",
"v#	c #362527",
"w#	c #513A3E",
"x#	c #2F2833",
"y#	c #3E2F37",
"z#	c #7E5B5E",
"A#	c #705053",
"B#	c #1E1718",
"C#	c #3A3236",
"D#	c #0E1419",
"E#	c #11201A",
"F#	c #0F211D",
"G#	c #142C26",
"H#	c #162F33",
"I#	c #112521",
"J#	c #1A320A",
"K#	c #1B360B",
"L#	c #0B1806",
"M#	c #251D27",
"N#	c #2F2533",
"O#	c #29212C",
"P#	c #100C13",
"Q#	c #011C24",
"R#	c #003745",
"S#	c #012C37",
"T#	c #09181C",
"U#	c #2E4C55",
"V#	c #2E545F",
"W#	c #35606B",
"X#	c #3C6A76",
"Y#	c #417684",
"Z#	c #488494",
"`#	c #5193A4",
" $	c #5AA3B6",
".$	c #5EABBE",
"+$	c #65B6CB",
"@$	c #6ABFD4",
"#$	c #71CCE2",
"$$	c #5BA6B9",
"%$	c #1F3E44",
"&$	c #162D0C",
"*$	c #072324",
"=$	c #071B14",
"-$	c #201C24",
";$	c #54435A",
">$	c #5A4862",
",$	c #57465F",
"'$	c #342939",
")$	c #02242E",
"!$	c #004455",
"~$	c #003E4D",
"{$	c #1C3C44",
"]$	c #67BACF",
"^$	c #77D5ED",
"/$	c #7ADBF4",
"($	c #7BDDF6",
"_$	c #7DE1FA",
":$	c #7FE3FD",
"<$	c #7FE4FD",
"[$	c #7FE4FE",
"}$	c #80E5FE",
"|$	c #80E5FF",
"1$	c #7EE2FC",
"2$	c #284E56",
"3$	c #11240B",
"4$	c #142D15",
"5$	c #003D4C",
"6$	c #01222C",
"7$	c #332837",
"8$	c #5B4963",
"9$	c #312636",
"0$	c #01242E",
"a$	c #004353",
"b$	c #022A35",
"c$	c #264952",
"d$	c #6EC6DC",
"e$	c #75D1E9",
"f$	c #74D0E7",
"g$	c #5FACC0",
"h$	c #173135",
"i$	c #142C14",
"j$	c #003847",
"k$	c #012029",
"l$	c #261D29",
"m$	c #58465F",
"n$	c #332838",
"o$	c #004354",
"p$	c #004151",
"q$	c #03222C",
"r$	c #224149",
"s$	c #3E6F7D",
"t$	c #4B8695",
"u$	c #4E8A9B",
"v$	c #4E8B9B",
"w$	c #498392",
"x$	c #2D545D",
"y$	c #0C1C13",
"z$	c #0F2206",
"A$	c #01080B",
"B$	c #030905",
"C$	c #0C1209",
"D$	c #403345",
"E$	c #56455D",
"F$	c #524159",
"G$	c #2C2330",
"H$	c #021F28",
"I$	c #004152",
"J$	c #003442",
"K$	c #0B1C21",
"L$	c #2E5661",
"M$	c #386672",
"N$	c #3B6C79",
"O$	c #3E707E",
"P$	c #427786",
"Q$	c #457B89",
"R$	c #477E8D",
"S$	c #498291",
"T$	c #498292",
"U$	c #4A8494",
"V$	c #4B8595",
"W$	c #4C8796",
"X$	c #457D8B",
"Y$	c #24454D",
"Z$	c #08140D",
"`$	c #0E110B",
" %	c #1F1B21",
".%	c #161118",
"+%	c #0A090F",
"@%	c #021016",
"#%	c #01212A",
"$%	c #03131A",
"%%	c #020203",
"&%	c #151620",
"*%	c #1B1D29",
"=%	c #181C26",
"-%	c #131820",
";%	c #11181F",
">%	c #0F1B20",
",%	c #13282D",
"'%	c #1A3438",
")%	c #1C373D",
"!%	c #203D44",
"~%	c #234249",
"{%	c #264850",
"]%	c #1A3338",
"^%	c #0C1C08",
"/%	c #1C370C",
"(%	c #080F07",
"_%	c #181821",
":%	c #07070C",
"<%	c #12121B",
"[%	c #262636",
"}%	c #1C1C29",
"|%	c #15141E",
"1%	c #1E1E2B",
"2%	c #21212F",
"3%	c #0A100C",
"4%	c #1A340B",
"5%	c #0D1C07",
"6%	c #162C09",
"7%	c #090D0B",
"8%	c #1B1B26",
"9%	c #15151E",
"0%	c #1B1B27",
"a%	c #262635",
"b%	c #0B110D",
"c%	c #112407",
"d%	c #132609",
"e%	c #191924",
"f%	c #2D2D3E",
"g%	c #2C2C3E",
"h%	c #101616",
"i%	c #18300A",
"j%	c #0B0F0E",
"k%	c #1C1B27",
"l%	c #1E1E2A",
"m%	c #242332",
"n%	c #2E2D3F",
"o%	c #15161E",
"p%	c #0A110B",
"q%	c #22212D",
"r%	c #312F3F",
"s%	c #1A1B1F",
"t%	c #142908",
"u%	c #102007",
"v%	c #292325",
"w%	c #43383F",
"x%	c #54474E",
"y%	c #6F5E66",
"z%	c #62535B",
"A%	c #171C13",
"B%	c #181F12",
"C%	c #504348",
"D%	c #7E6A72",
"E%	c #67575E",
"F%	c #17260D",
"G%	c #0B1505",
"H%	c #393033",
"I%	c #53454C",
"J%	c #6B5A61",
"K%	c #8A747D",
"L%	c #715F66",
"M%	c #17230F",
"N%	c #141D0D",
"O%	c #4E4146",
"P%	c #76646B",
"Q%	c #6F5D64",
"R%	c #17200F",
"S%	c #090E06",
"T%	c #0C0C0A",
"U%	c #11100E",
"V%	c #171513",
"W%	c #11110D",
"X%	c #152908",
"Y%	c #172E09",
"Z%	c #15230C",
"`%	c #1C2A14",
" &	c #1C2913",
"                                .                                               ",
"                              + @ #                                             ",
"                              $ % &                                             ",
"                            * = - ; >                                           ",
"                    , '   ) ! ~ { ] ^ / (                                       ",
"                    _ : < [ } | 1 2 3 4 5 6       7                             ",
"                  8 9 0 a b c d e f g h i j k l   m n                           ",
"                  o p q r s t u v w x y z A B C D E F                           ",
"              G H I J K L M N O P Q R S T U V W X Y Z                           ",
"              `  ...+.@.#.$.%.&.*.=.-.;.>.,.'.).!.~.{.                          ",
"              ].^./.(._.:.<.[.}.|.1.2.3.4.5.6.7.8.9.0.                          ",
"              a.b.c.d.e.f.g.h.i.j.k.l.m.n.o.p.q.r.s.t.                          ",
"              u.v.w.x.y.z.A.B.C.D.E.F.G.H.I.J.K.L.M.N.                          ",
"              O.P.Q.R.S.T.U.V.W.X.Y.Z.`. +.+++@+#+$+                            ",
"              %+&+*+=+-+;+>+,+'+)+!+~+{+]+^+/+(+_+:+                            ",
"              <+[+}+|+1+2+3+4+5+6+7+8+9+0+a+b+c+d+e+f+                          ",
"                g+h+i+j+k+l+m+n+o+p+q+r+s+t+u+v+w+% x+                          ",
"                y+z+A+B+C+D+E+F+G+H+I+J+K+L+M+N+O+P+`                           ",
"                Q+R+S+T+U+V+W+X+Y+Z+`+ @.@+@@@#@$@%@&@                          ",
"                *@=@-@;@>@,@'@)@!@~@{@]@^@/@(@_@:@<@                            ",
"                  [@}@|@1@2@3@4@5@6@7@8@9@0@a@b@c@                              ",
"              d@e@f@g@h@i@j@k@l@m@n@o@p@q@r@s@t@u@                              ",
"              v@w@x@h@y@z@A@B@C@D@E@F@G@H@I@J@K@L@M@N@                          ",
"                O@P@Q@R@S@T@U@V@W@X@Y@Z@`@ #.#+#@###$#                          ",
"                  %#&#*#Q@=#-#;#>#,#'#)#!#~#{#R@]#O@                            ",
"                  ^#/#(#_#:#<#[#}#|#|#1#2#3#4#5#6#                              ",
"                7#8#9#0#a#b#c#d#e#f#g#h#i#j#k#l#m#                              ",
"                n#o#p#q#r#s#t#u#v#w#x#y#z#A#B#C#D#E#F#G#H#I#                    ",
"            J#K#L#M#N#O#P#Q#R#S#T#U#V#W#X#Y#Z#`# $.$+$@$#$$$%$                  ",
"          &$*$=$-$;$>$,$'$)$!$~${$]$^$/$($_$:$<$[$}$|$|$|$1$]$2$3$              ",
"          4$5$6$7$>$8$>$9$0$!$a$b$c$`#d$e$e$e$e$e$e$e$e$e$e$f$g$h$              ",
"          i$j$k$l$m$8$>$n$6$o$p$q$r$s$t$u$u$v$v$v$v$v$v$v$u$w$x$y$              ",
"          z$A$B$C$D$E$F$G$H$I$J$K$L$M$N$O$P$Q$R$S$T$U$V$W$X$Y$Z$                ",
"                  `$ %.%+%@%#%$%%%&%*%=%-%;%>%,%'%)%!%~%{%]%^%                  ",
"                    /%(%_%:%<%[%}%|%1%2%1#g#[%3%      4%5%                      ",
"                    6%7%8%9%0%|#a%b%c%d%e%f%g%h%                                ",
"                    i%j%k%l%m%n%o%c%    p%q%r%s%t%                              ",
"                    u%v%w%x%y%z%A%      B%C%D%E%F%                              ",
"                    G%H%I%J%K%L%M%      N%O%P%Q%R%                              ",
"                      S%T%U%V%W%X%      Y%Z%`% &                                "};
