/* XPM */
static char * player_l_xpm[] = {
"40 40 576 2",
"  	c #4C545F",
". 	c #122606",
"+ 	c #14250C",
"@ 	c #1D1622",
"# 	c #0D1809",
"$ 	c #3A2B43",
"% 	c #543D61",
"& 	c #191C1A",
"* 	c #32273B",
"= 	c #725485",
"- 	c #594167",
"; 	c #1F1825",
"> 	c #31253A",
", 	c #79598C",
"' 	c #6E5180",
") 	c #573F64",
"! 	c #221827",
"~ 	c #152C08",
"{ 	c #0B1A05",
"] 	c #091503",
"^ 	c #1A1C1C",
"/ 	c #463452",
"( 	c #815F95",
"_ 	c #825F96",
": 	c #5D446B",
"< 	c #553E62",
"[ 	c #1D1722",
"} 	c #2B2431",
"| 	c #302438",
"1 	c #0C1906",
"2 	c #101511",
"3 	c #192914",
"4 	c #4B3757",
"5 	c #6E507F",
"6 	c #8D68A3",
"7 	c #8C67A2",
"8 	c #644974",
"9 	c #5A4268",
"0 	c #563F63",
"a 	c #463351",
"b 	c #312439",
"c 	c #684D79",
"d 	c #3F2E4A",
"e 	c #0A1505",
"f 	c #242029",
"g 	c #4C3757",
"h 	c #0D1909",
"i 	c #402F4A",
"j 	c #815F94",
"k 	c #89659E",
"l 	c #916BA7",
"m 	c #6D507D",
"n 	c #584065",
"o 	c #564064",
"p 	c #5D446C",
"q 	c #78598B",
"r 	c #7E5C91",
"s 	c #60476F",
"t 	c #3B2B45",
"u 	c #060C04",
"v 	c #483554",
"w 	c #6B4E7B",
"x 	c #31233A",
"y 	c #7E5D91",
"z 	c #906BA7",
"A 	c #775889",
"B 	c #5B4369",
"C 	c #523B5E",
"D 	c #614770",
"E 	c #7D5C90",
"F 	c #77588A",
"G 	c #5E456D",
"H 	c #563F64",
"I 	c #2E2236",
"J 	c #0F2007",
"K 	c #0A1008",
"L 	c #0F1E08",
"M 	c #765789",
"N 	c #846198",
"O 	c #503A5C",
"P 	c #574065",
"Q 	c #4C3758",
"R 	c #4F3A5B",
"S 	c #281F2E",
"T 	c #4F395C",
"U 	c #32253A",
"V 	c #553F63",
"W 	c #86629A",
"X 	c #5E456C",
"Y 	c #61476F",
"Z 	c #805E93",
"` 	c #6A4E7A",
" .	c #594166",
"..	c #4E395A",
"+.	c #533D60",
"@.	c #4D3859",
"#.	c #624871",
"$.	c #7C5B90",
"%.	c #8A66A0",
"&.	c #402F4B",
"*.	c #41304B",
"=.	c #8E69A4",
"-.	c #7C5B8F",
";.	c #5A4369",
">.	c #684C79",
",.	c #5C446B",
"'.	c #4A3655",
").	c #403244",
"!.	c #5A4F46",
"~.	c #685D4F",
"{.	c #544A44",
"].	c #3D303E",
"^.	c #3B2B44",
"/.	c #513B5E",
"(.	c #654A75",
"_.	c #755687",
":.	c #2A1E31",
"<.	c #191C1B",
"[.	c #745586",
"}.	c #856199",
"|.	c #34253C",
"1.	c #33253B",
"2.	c #4B4040",
"3.	c #B9A988",
"4.	c #EDD9AE",
"5.	c #F4DFB4",
"6.	c #EAD6AC",
"7.	c #C8B793",
"8.	c #82765F",
"9.	c #382A3E",
"0.	c #6C4F7C",
"a.	c #7A5A8D",
"b.	c #694D7A",
"c.	c #523C5F",
"d.	c #1B1E1D",
"e.	c #725384",
"f.	c #634872",
"g.	c #5E5447",
"h.	c #998B70",
"i.	c #52493F",
"j.	c #BAAB89",
"k.	c #F7E3B6",
"l.	c #EDD9AF",
"m.	c #C1B08E",
"n.	c #F3DEB3",
"o.	c #FBE6B9",
"p.	c #EAD7AC",
"q.	c #4E453F",
"r.	c #584066",
"s.	c #372840",
"t.	c #0B1308",
"u.	c #44324F",
"v.	c #664A76",
"w.	c #3B2D3E",
"x.	c #716752",
"y.	c #DBC8A1",
"z.	c #E7D4AA",
"A.	c #EEDAAF",
"B.	c #C6B591",
"C.	c #756B55",
"D.	c #9C8F72",
"E.	c #F0DCB1",
"F.	c #F3DFB3",
"G.	c #706553",
"H.	c #3C2B47",
"I.	c #0F170D",
"J.	c #19320A",
"K.	c #242627",
"L.	c #694D79",
"M.	c #433545",
"N.	c #A59779",
"O.	c #82765E",
"P.	c #5C5342",
"Q.	c #DDCAA3",
"R.	c #A7997A",
"S.	c #2E291F",
"T.	c #A39577",
"U.	c #F6E1B5",
"V.	c #F2DEB3",
"W.	c #776C57",
"X.	c #3B2B43",
"Y.	c #483553",
"Z.	c #42304D",
"`.	c #221828",
" +	c #091604",
".+	c #473452",
"++	c #978A6E",
"@+	c #EBD7AD",
"#+	c #655C48",
"$+	c #9C8E71",
"%+	c #D6C49E",
"&+	c #29241B",
"*+	c #93866B",
"=+	c #FAE5B8",
"-+	c #E3D0A7",
";+	c #7B715A",
">+	c #312A28",
",+	c #483E40",
"'+	c #3A2C3F",
")+	c #181F17",
"!+	c #231927",
"~+	c #A89A7B",
"{+	c #EFDBB0",
"]+	c #675D4A",
"^+	c #B3A484",
"/+	c #E6D2A9",
"(+	c #393328",
"_+	c #94876C",
":+	c #F9E4B7",
"<+	c #C1B18F",
"[+	c #887C64",
"}+	c #C4B390",
"|+	c #D9C69F",
"1+	c #A29376",
"2+	c #1E2412",
"3+	c #070E04",
"4+	c #030602",
"5+	c #796E57",
"6+	c #C0AF8C",
"7+	c #E0CDA4",
"8+	c #F3DEB2",
"9+	c #94876B",
"0+	c #CAB894",
"a+	c #E5D1A8",
"b+	c #A09276",
"c+	c #AD9E7F",
"d+	c #DAC8A0",
"e+	c #AE9F7F",
"f+	c #DFCCA3",
"g+	c #383827",
"h+	c #071303",
"i+	c #313022",
"j+	c #D1BF99",
"k+	c #F6E2B5",
"l+	c #F9E4B8",
"m+	c #EBD8AE",
"n+	c #978A6F",
"o+	c #9F9175",
"p+	c #E0CDA5",
"q+	c #C9B994",
"r+	c #B3A383",
"s+	c #2C2B1D",
"t+	c #0E1A06",
"u+	c #6E654F",
"v+	c #E8D5AB",
"w+	c #F8E3B7",
"x+	c #E1CEA6",
"y+	c #9A8C71",
"z+	c #756A55",
"A+	c #776D57",
"B+	c #564D3D",
"C+	c #685E4B",
"D+	c #574B3D",
"E+	c #212515",
"F+	c #241414",
"G+	c #381F22",
"H+	c #81765E",
"I+	c #DBC9A2",
"J+	c #D9C6A0",
"K+	c #9D8F73",
"L+	c #605645",
"M+	c #46252B",
"N+	c #4D2930",
"O+	c #4F2931",
"P+	c #4D272F",
"Q+	c #2C151A",
"R+	c #0F1906",
"S+	c #0E1406",
"T+	c #0C1905",
"U+	c #0E1B05",
"V+	c #121D08",
"W+	c #131808",
"X+	c #3F2026",
"Y+	c #3B2024",
"Z+	c #433B2F",
"`+	c #8E8168",
" @	c #94876D",
".@	c #95886D",
"+@	c #91856B",
"@@	c #584E3F",
"#@	c #562D35",
"$@	c #592E37",
"%@	c #48242C",
"&@	c #381B21",
"*@	c #47242B",
"=@	c #3E2026",
"-@	c #1A0E0D",
";@	c #1F1511",
">@	c #46242B",
",@	c #47252B",
"'@	c #412027",
")@	c #361B21",
"!@	c #6E5C4C",
"~@	c #54493C",
"{@	c #28241F",
"]@	c #403A2E",
"^@	c #474133",
"/@	c #3F392D",
"(@	c #615544",
"_@	c #47342F",
":@	c #3B1D23",
"<@	c #4E2730",
"[@	c #5E313A",
"}@	c #61323C",
"|@	c #542B33",
"1@	c #2E1D1B",
"2@	c #512A32",
"3@	c #582E37",
"4@	c #83705C",
"5@	c #61574D",
"6@	c #2A2A3B",
"7@	c #272738",
"8@	c #252535",
"9@	c #272634",
"0@	c #8D7D67",
"a@	c #70594C",
"b@	c #60323C",
"c@	c #582D36",
"d@	c #3F2027",
"e@	c #1A1F0D",
"f@	c #17190B",
"g@	c #301A1E",
"h@	c #927E67",
"i@	c #61554E",
"j@	c #2C2C3F",
"k@	c #2F2F42",
"l@	c #3F3440",
"m@	c #755C56",
"n@	c #99846C",
"o@	c #522D33",
"p@	c #3C1E25",
"q@	c #2F212B",
"r@	c #3B2F3E",
"s@	c #181716",
"t@	c #101612",
"u@	c #524449",
"v@	c #2D2123",
"w@	c #5F4546",
"x@	c #5E4549",
"y@	c #322F40",
"z@	c #2E2E41",
"A@	c #2E2733",
"B@	c #7C595D",
"C@	c #986C70",
"D@	c #3D2E2B",
"E@	c #0E0608",
"F@	c #282023",
"G@	c #65555C",
"H@	c #584A53",
"I@	c #4F4247",
"J@	c #142310",
"K@	c #112521",
"L@	c #162F33",
"M@	c #142C26",
"N@	c #0F211D",
"O@	c #11201A",
"P@	c #0E1419",
"Q@	c #3A3236",
"R@	c #1E1718",
"S@	c #705053",
"T@	c #7E5B5E",
"U@	c #3E2F37",
"V@	c #2F2833",
"W@	c #513A3E",
"X@	c #362527",
"Y@	c #523A3D",
"Z@	c #1C1618",
"`@	c #080A0F",
" #	c #221D22",
".#	c #63535A",
"+#	c #443A40",
"@#	c #57494F",
"##	c #131C12",
"$#	c #1F3E44",
"%#	c #5BA6B9",
"&#	c #71CCE2",
"*#	c #6ABFD4",
"=#	c #65B6CB",
"-#	c #5EABBE",
";#	c #5AA3B6",
">#	c #5193A4",
",#	c #488494",
"'#	c #417684",
")#	c #3C6A76",
"!#	c #35606B",
"~#	c #2E545F",
"{#	c #2E4C55",
"]#	c #09181C",
"^#	c #012C37",
"/#	c #003745",
"(#	c #011C24",
"_#	c #100C13",
":#	c #29212C",
"<#	c #2F2533",
"[#	c #251D27",
"}#	c #0B1806",
"|#	c #1B360B",
"1#	c #1A320A",
"2#	c #11240B",
"3#	c #284E56",
"4#	c #67BACF",
"5#	c #7EE2FC",
"6#	c #80E5FF",
"7#	c #80E5FE",
"8#	c #7FE4FE",
"9#	c #7FE4FD",
"0#	c #7FE3FD",
"a#	c #7DE1FA",
"b#	c #7BDDF6",
"c#	c #7ADBF4",
"d#	c #77D5ED",
"e#	c #1C3C44",
"f#	c #003E4D",
"g#	c #004455",
"h#	c #02242E",
"i#	c #342939",
"j#	c #57465F",
"k#	c #5A4862",
"l#	c #54435A",
"m#	c #201C24",
"n#	c #071B14",
"o#	c #072324",
"p#	c #162D0C",
"q#	c #173135",
"r#	c #5FACC0",
"s#	c #74D0E7",
"t#	c #75D1E9",
"u#	c #6EC6DC",
"v#	c #264952",
"w#	c #022A35",
"x#	c #004353",
"y#	c #01242E",
"z#	c #312636",
"A#	c #5B4963",
"B#	c #332837",
"C#	c #01222C",
"D#	c #003D4C",
"E#	c #142D15",
"F#	c #0C1C13",
"G#	c #2D545D",
"H#	c #498392",
"I#	c #4E8A9B",
"J#	c #4E8B9B",
"K#	c #4B8695",
"L#	c #3E6F7D",
"M#	c #224149",
"N#	c #03222C",
"O#	c #004151",
"P#	c #004354",
"Q#	c #332838",
"R#	c #58465F",
"S#	c #261D29",
"T#	c #012029",
"U#	c #003847",
"V#	c #142C14",
"W#	c #08140D",
"X#	c #24454D",
"Y#	c #457D8B",
"Z#	c #4C8796",
"`#	c #4B8595",
" $	c #4A8494",
".$	c #498292",
"+$	c #498291",
"@$	c #477E8D",
"#$	c #457B89",
"$$	c #427786",
"%$	c #3E707E",
"&$	c #3B6C79",
"*$	c #386672",
"=$	c #2E5661",
"-$	c #0B1C21",
";$	c #003442",
">$	c #004152",
",$	c #021F28",
"'$	c #2C2330",
")$	c #524159",
"!$	c #56455D",
"~$	c #403345",
"{$	c #0C1209",
"]$	c #030905",
"^$	c #01080B",
"/$	c #0F2206",
"($	c #0C1C08",
"_$	c #1A3338",
":$	c #264850",
"<$	c #234249",
"[$	c #203D44",
"}$	c #1C373D",
"|$	c #1A3438",
"1$	c #13282D",
"2$	c #0F1B20",
"3$	c #11181F",
"4$	c #131820",
"5$	c #181C26",
"6$	c #1B1D29",
"7$	c #151620",
"8$	c #020203",
"9$	c #03131A",
"0$	c #01212A",
"a$	c #021016",
"b$	c #0A090F",
"c$	c #161118",
"d$	c #1F1B21",
"e$	c #0E110B",
"f$	c #0D1C07",
"g$	c #1A340B",
"h$	c #0A100C",
"i$	c #262636",
"j$	c #21212F",
"k$	c #1E1E2B",
"l$	c #15141E",
"m$	c #1C1C29",
"n$	c #12121B",
"o$	c #07070C",
"p$	c #181821",
"q$	c #080F07",
"r$	c #1C370C",
"s$	c #101616",
"t$	c #2C2C3E",
"u$	c #2D2D3E",
"v$	c #191924",
"w$	c #132609",
"x$	c #112407",
"y$	c #0B110D",
"z$	c #262635",
"A$	c #1B1B27",
"B$	c #15151E",
"C$	c #1B1B26",
"D$	c #090D0B",
"E$	c #162C09",
"F$	c #142908",
"G$	c #1A1B1F",
"H$	c #312F3F",
"I$	c #22212D",
"J$	c #0A110B",
"K$	c #15161E",
"L$	c #2E2D3F",
"M$	c #242332",
"N$	c #1E1E2A",
"O$	c #1C1B27",
"P$	c #0B0F0E",
"Q$	c #18300A",
"R$	c #17260D",
"S$	c #67575E",
"T$	c #7E6A72",
"U$	c #504348",
"V$	c #181F12",
"W$	c #171C13",
"X$	c #62535B",
"Y$	c #6F5E66",
"Z$	c #54474E",
"`$	c #43383F",
" %	c #292325",
".%	c #102007",
"+%	c #17200F",
"@%	c #6F5D64",
"#%	c #76646B",
"$%	c #4E4146",
"%%	c #141D0D",
"&%	c #17230F",
"*%	c #715F66",
"=%	c #8A747D",
"-%	c #6B5A61",
";%	c #53454C",
">%	c #393033",
",%	c #0B1505",
"'%	c #1C2913",
")%	c #1C2A14",
"!%	c #15230C",
"~%	c #172E09",
"{%	c #152908",
"]%	c #11110D",
"^%	c #171513",
"/%	c #11100E",
"(%	c #0C0C0A",
"_%	c #090E06",
"                                              .                                 ",
"                                            + @ #                               ",
"                                            $ % &                               ",
"                                          * = - ;                               ",
"                                        > , ' ) !       ~ {                     ",
"                            ]       ^ / ( _ : < [       } |                     ",
"                          1 2   3 4 5 6 7 8 9 0 a b | a c d e                   ",
"                          f g h i j k l m 9 n o p q k r s t u                   ",
"                          v w x 5 y z A B - C D E k F G H I J K L               ",
"                          0 M 9 N y N p - O P : D G 9 - Q R S T U               ",
"                          V W X Y Z `  ...+.< % V - n @.+.#.$.%.&.              ",
"                          *.=.-.;.>.,.'.@.).!.~.{.].^./.(.k l _.:.              ",
"                          <.[.}.Z |.1.4 2.3.4.5.6.7.8.9.0.a.b.c.d.              ",
"                            b e.f.g.h.i.j.k.l.m.n.o.p.q.0 9 r.s.t.              ",
"                            u.v.w.x.y.z.A.B.C.D.E.o.F.G.c.P H.I.J.              ",
"                          K.L.M.N.O.P.Q.R.S.T.U.o.o.V.W.X.Y.Z.`. +              ",
"                          .+% ++@+#+$+F.%+&+*+=+o.o.-+;+>+,+'+)+                ",
"                          U !+~+{+]+^+=+/+(+_+=+o.:+<+[+}+|+1+2+                ",
"                          3+4+5+E.6+7+o.8+9+0+o.o.a+b+c+d+e+f+g+                ",
"                            h+i+j+=+o.o.o.k+l+o.m+c+n+o+p+q+r+s+                ",
"                              t+u+v+o.o.o.o.w+x+y+z+A+B+C+D+E+                  ",
"                              F+G+H+I+@+z.J+j.K+L+M+N+O+P+Q+R+S+T+              ",
"                          U+V+W+X+Y+Z+W.`+ @.@+@@@#@$@%@&@P+*@=@-@              ",
"                          ;@>@,@'@)@!@~@{@]@^@/@(@_@:@<@[@}@|@1@                ",
"                            1@2@[@3@4@5@6@7@8@9@0@a@b@}@c@d@e@                  ",
"                              f@g@M+h@i@j@k@k@l@m@n@o@p@q@r@s@                  ",
"                              t@u@v@w@x@y@z@A@B@C@D@E@F@G@H@I@J@                ",
"                    K@L@M@N@O@P@Q@R@S@T@U@V@W@X@Y@Z@`@ #.#+#@###                ",
"                  $#%#&#*#=#-#;#>#,#'#)#!#~#{#]#^#/#(#_#:#<#[#}#|#1#            ",
"              2#3#4#5#6#6#6#7#8#9#0#a#b#c#d#4#e#f#g#h#i#j#k#l#m#n#o#p#          ",
"              q#r#s#t#t#t#t#t#t#t#t#t#t#u#>#v#w#x#g#y#z#k#A#k#B#C#D#E#          ",
"              F#G#H#I#J#J#J#J#J#J#J#I#I#K#L#M#N#O#P#C#Q#k#A#R#S#T#U#V#          ",
"                W#X#Y#Z#`# $.$+$@$#$$$%$&$*$=$-$;$>$,$'$)$!$~${$]$^$/$          ",
"                  ($_$:$<$[$}$|$1$2$3$4$5$6$7$8$9$0$a$b$c$d$e$                  ",
"                      f$g$      h$i$z@j@j$k$l$m$i$n$o$p$q$r$                    ",
"                                s$t$u$v$w$x$y$z$k@A$B$C$D$E$                    ",
"                              F$G$H$I$J$    x$K$L$M$N$O$P$Q$                    ",
"                              R$S$T$U$V$      W$X$Y$Z$`$ %.%                    ",
"                              +%@%#%$%%%      &%*%=%-%;%>%,%                    ",
"                                '%)%!%~%      {%]%^%/%(%_%                      "};
