/* XPM */
static char * wall_xpm[] = {
"40 40 320 2",
"  	c #353C41",
". 	c #3F474C",
"+ 	c #384044",
"@ 	c #383F44",
"# 	c #363D42",
"$ 	c #373E42",
"% 	c #343B3F",
"& 	c #323A3D",
"* 	c #363E42",
"= 	c #23292C",
"- 	c #293134",
"; 	c #2A3335",
"> 	c #283133",
", 	c #272F32",
"' 	c #282F32",
") 	c #293234",
"! 	c #2D3538",
"~ 	c #3D464A",
"{ 	c #373F43",
"] 	c #384144",
"^ 	c #3B4448",
"/ 	c #3B4549",
"( 	c #353D40",
"_ 	c #3E474B",
": 	c #3A4246",
"< 	c #3B4548",
"[ 	c #394245",
"} 	c #363D41",
"| 	c #323A3E",
"1 	c #404A4E",
"2 	c #3A4347",
"3 	c #394145",
"4 	c #383F43",
"5 	c #333A3E",
"6 	c #333B3E",
"7 	c #32393D",
"8 	c #31383C",
"9 	c #262C2F",
"0 	c #283134",
"a 	c #273033",
"b 	c #262E32",
"c 	c #283032",
"d 	c #242A2D",
"e 	c #353D41",
"f 	c #3A4346",
"g 	c #3A4448",
"h 	c #394144",
"i 	c #394246",
"j 	c #2A3134",
"k 	c #31393C",
"l 	c #343B40",
"m 	c #31393D",
"n 	c #2B3235",
"o 	c #252C30",
"p 	c #283033",
"q 	c #272E32",
"r 	c #262E31",
"s 	c #252D2F",
"t 	c #30383C",
"u 	c #363F42",
"v 	c #373E43",
"w 	c #2C3337",
"x 	c #3B4447",
"y 	c #343C40",
"z 	c #2F373B",
"A 	c #242C2F",
"B 	c #232A2D",
"C 	c #242A2E",
"D 	c #252B2F",
"E 	c #262C30",
"F 	c #2B3336",
"G 	c #2D3437",
"H 	c #30383B",
"I 	c #333B3F",
"J 	c #2C3236",
"K 	c #353C40",
"L 	c #30373B",
"M 	c #272E31",
"N 	c #202529",
"O 	c #1F2428",
"P 	c #23292D",
"Q 	c #3A4146",
"R 	c #252B2E",
"S 	c #22292C",
"T 	c #21272B",
"U 	c #22282B",
"V 	c #23282C",
"W 	c #252C2F",
"X 	c #282E32",
"Y 	c #202528",
"Z 	c #262D30",
"` 	c #2C3336",
" .	c #2B3135",
"..	c #293033",
"+.	c #2A3135",
"@.	c #2A3034",
"#.	c #2F353A",
"$.	c #3E464B",
"%.	c #3B4348",
"&.	c #40494D",
"*.	c #444D51",
"=.	c #434B4F",
"-.	c #40484C",
";.	c #2E3438",
">.	c #41494D",
",.	c #3D454A",
"'.	c #3C4549",
").	c #40494E",
"!.	c #282E31",
"~.	c #41494E",
"{.	c #3F474B",
"].	c #414A4E",
"^.	c #3D4448",
"/.	c #212729",
"(.	c #22292B",
"_.	c #272D30",
":.	c #40484D",
"<.	c #3B4749",
"[.	c #3C494A",
"}.	c #3C484A",
"|.	c #3F484C",
"1.	c #4E575C",
"2.	c #474F54",
"3.	c #4A5358",
"4.	c #364043",
"5.	c #374244",
"6.	c #3C474A",
"7.	c #3E484B",
"8.	c #475055",
"9.	c #30373A",
"0.	c #475155",
"a.	c #434D51",
"b.	c #3D494B",
"c.	c #3B4347",
"d.	c #3C4448",
"e.	c #323B3E",
"f.	c #262D31",
"g.	c #3B4547",
"h.	c #3B4849",
"i.	c #384244",
"j.	c #343C3F",
"k.	c #434C50",
"l.	c #364143",
"m.	c #3A4547",
"n.	c #3D474B",
"o.	c #3C4749",
"p.	c #3A4548",
"q.	c #384245",
"r.	c #374245",
"s.	c #313A3D",
"t.	c #2B3236",
"u.	c #353E41",
"v.	c #3A4447",
"w.	c #3B4748",
"x.	c #384345",
"y.	c #353E42",
"z.	c #374044",
"A.	c #424B50",
"B.	c #343B3E",
"C.	c #3B4648",
"D.	c #3B4649",
"E.	c #394547",
"F.	c #394346",
"G.	c #364244",
"H.	c #374043",
"I.	c #2E3639",
"J.	c #2F373A",
"K.	c #363E43",
"L.	c #454E52",
"M.	c #394447",
"N.	c #394446",
"O.	c #374144",
"P.	c #364042",
"Q.	c #333C3F",
"R.	c #2E3539",
"S.	c #31383B",
"T.	c #3C4649",
"U.	c #394045",
"V.	c #1E2426",
"W.	c #1C2124",
"X.	c #2A3033",
"Y.	c #2E3538",
"Z.	c #212629",
"`.	c #1F2528",
" +	c #2B3134",
".+	c #485156",
"++	c #4D565C",
"@+	c #4C555A",
"#+	c #4D565B",
"$+	c #4F585D",
"%+	c #3E484C",
"&+	c #3C464A",
"*+	c #3C4548",
"=+	c #444D52",
"-+	c #485256",
";+	c #2D3438",
">+	c #2F363A",
",+	c #4B5559",
"'+	c #465054",
")+	c #434B50",
"!+	c #2D3639",
"~+	c #31383D",
"{+	c #3D4549",
"]+	c #2D3638",
"^+	c #343B41",
"/+	c #485257",
"(+	c #3D474A",
"_+	c #2B3436",
":+	c #2F383B",
"<+	c #2C3437",
"[+	c #2C3436",
"}+	c #353B41",
"|+	c #424A4F",
"1+	c #2C3538",
"2+	c #293235",
"3+	c #292F33",
"4+	c #2E3638",
"5+	c #272F31",
"6+	c #32393E",
"7+	c #3D464B",
"8+	c #2E363A",
"9+	c #31373C",
"0+	c #293034",
"a+	c #3A4247",
"b+	c #2A3235",
"c+	c #1D2225",
"d+	c #2F3539",
"e+	c #242B2E",
"f+	c #2D3336",
"g+	c #40474C",
"h+	c #424A4E",
"i+	c #42494E",
"j+	c #333A3D",
"k+	c #3C4347",
"l+	c #2C3235",
"m+	c #373F42",
"n+	c #2C3537",
"o+	c #2E373A",
"p+	c #30393C",
"q+	c #4F595E",
"r+	c #495458",
"s+	c #424D50",
"t+	c #4E585D",
"u+	c #384045",
"v+	c #2B3435",
"w+	c #262B2E",
"x+	c #444E52",
"y+	c #363E41",
"z+	c #282D2F",
"A+	c #262B2F",
"B+	c #252A2E",
"C+	c #202629",
"D+	c #333A40",
"E+	c #22282C",
"F+	c #22272B",
"G+	c #30373C",
"H+	c #333940",
"I+	c #333A3F",
"J+	c #242B2D",
"K+	c #2E3439",
"L+	c #22272A",
"M+	c #3B4246",
"N+	c #31373B",
"O+	c #292F32",
"P+	c #343A3E",
"Q+	c #3B4247",
"R+	c #454F53",
"S+	c #434E51",
"T+	c #555E64",
"U+	c #495257",
"V+	c #424B4F",
"W+	c #384043",
"X+	c #21262A",
"Y+	c #3C4849",
"Z+	c #4F585E",
"`+	c #404A4D",
" @	c #3F494C",
".@	c #272F33",
"+@	c #343D40",
"@@	c #394345",
"#@	c #3D484B",
"$@	c #353D42",
"%@	c #2B3437",
"&@	c #282F31",
"*@	c #24292D",
"=@	c #2D3337",
"-@	c #32393C",
";@	c #1D2325",
">@	c #272D31",
",@	c #3C4348",
"'@	c #3B4346",
")@	c #353C3F",
"!@	c #3A4145",
"~@	c #545D63",
"{@	c #566065",
"]@	c #3F494D",
"^@	c #4D575C",
"/@	c #545E64",
"(@	c #464F54",
"_@	c #3D4A4B",
":@	c #3A4648",
"<@	c #4C575B",
"[@	c #535C62",
"}@	c #384145",
"|@	c #394347",
"1@	c #3E474A",
"2@	c #444F52",
"3@	c #363C41",
"4@	c #4A5359",
"5@	c #434C51",
"6@	c #1F2427",
"7@	c #202628",
"8@	c #1E2326",
"9@	c #1A1F21",
"0@	c #272C30",
"a@	c #1B2022",
"b@	c #414A4F",
"c@	c #3F484D",
"d@	c #2D3539",
"e@	c #464E54",
"    . . + + @ # $ # % & & % * = - ; ; ; ; > , ' ) ) ! ~ { { ] ^ / / ( _ : < [ { ",
"  } | 1 2 3 + $ * 4 # 5 6 7 8 9 ; ) 0 ) > a b , ' c d _ e     { f g * : h i + { ",
"# $ j / / / + + # { { * k l m n o p q , , r r q ' , s : { t 5 l u e 7 e # { 4 # ",
"v * w 2 x 2 # y y z ! ; 7 # } % A B B B C o D E p ; F G 3 H H & I 5 J ! I K $ * ",
"y + e 3 L j M d N O P E j % Q ' % R S T U d d V W X R = Y U Z ` X  .R .. .+.@.#.",
"$.$.$._ %.&.*.=.-.;.>.,.'.3 K * ^ : ,.$.).!.~.{.: 4 -.].-.~.^.3 & j R /.(._.:.,.",
"<.[.}.|.^ 6 & 5 1.2.3.4.5.<.6.6.7._ _ {.8.9.0.a.b.[.[./ c.%.%.d.+ e.F f.p 5 &.g.",
"<.[.h.i.j.& & I   k.|.4.l.m.}.n.|.|.].a.*.( |.o.[.}.}.p.q.u u   * l.r.s.t.' u.v.",
"w.[.x.y.5 & | 5 y $.{ * '.z./ _ |.7.A.*.B.n c.C.}./ D.E.F.l.G.# u l.5.q.H.' | v.",
"m.x.j.5 & & & % v k m I.J.H.K._ _ &.L.5 & H + v.o.v.M.N.N.O.l.4.l.l.l.l.P.M % : ",
"Q.* { + * - E ..t.= 3 z.8 ! R.I y.^ _ ` 4.S.e ,.< m.v.< T.v.U.e u ] H.u.% ' { 5 ",
"` L S.!.V.W.V @.C 9 y L X.9 J G L 7 % e e _.8 L Y.!.Z.M = Y U R `._.`.n  + +` J ",
"3 _ .+++++@+3.#+&.: d.: l c.$+A.%+&+*+].=+L..+8.k.-+;+3 | m t 8 >+5 n ,+'+2 f ] ",
"8 & l     ,.( 8 y Q H.z.I * )+O.e { H.z.!+J.~+k   {+k q f.f.p J.j.]+! 3.6./ f & ",
"L 8     ^+v ( /++ * + + s.H (+u.| J.; ; _+I.I.H l { L f.f.a , 8 :+<+[+^ / / c.k ",
"L m y }+^+5 9.|+  { + i ;+t.* :+1+2+0 ; ! I.I.k l 8 c r f.p 3+I.]+4+5+m 2 {+K k ",
"k 6+6+l   4 M c.5 ] g 7+- Z k I.2+- F 4+8+k 7 I # n (.p f.C k _+! ;+Y w { e K k ",
">+R.;+R.9++ T )+k s.[ 3 0+0+3 ;+F n R.% y % { { a+M U ' P = ' b+y Y c+@.8 w 0+3+",
"* $ n = J J 9.& Y.Y.>+d+J.L ` e+f+K + 3 3 : 3 : '.g+g+h+i+@ Y.8 j+e 3 c.k+/.l+& ",
"m+*+.+5 * - ; n+I.o+p+H & w ;+H q+r+s+&.7._ (+_ ,.^ c.2 : 8.{+t+d.u+3 %.c.7 H ( ",
"6 | ~ * ) ; ! [+v+; ; F _.w+P C x+5.4.    y y j.6 6 5 | & ,.+ *.y & & y y * % & ",
"6 6 y+& ; F _+; ) p , _.9 R P Y ` J.k 6+l k k & 6 & t t 8 y+k {+7 k ^+^+l y y 6 ",
"  % e ..; _+; 0 > f.f.z+A+B+P C+y $ { 3+J.& k & & :+:+L J.I.' 5 k 6+D+^+5 & %   ",
"+ 4 u+`.) _+; ) 0 r E B+R C E+d H %.{+|+5 J.t J.!+o+I.I.<+I.F+! k G+H+I+k l # # ",
"7 y e c+0+' , s e+e+d D C V B+W e+! H & 7 d ;+w n F ' J+e+<+J+n G ! K+;+G L I+H ",
"@ v   4 : : : 4 K L+B.3 M+,.y+N+>+H 5 7 + c.c.O+/._.R e+'  .3+Z P+Q+c.3 + 3 3 3 ",
"T.&.=+-+-+R+R+S+s+{ T+.+|.'.~ &.].*.4 .+=+%+U+.+K * ; > p ' y ! 8.:.(+< &+7._ (+",
"l.l.l.l.z.z.i [.[._ #+k e 3 T.>.V+W+2.a.).o.6.3.I.e.; 0 b r X+X |+u.F.v.<.Y+v.l.",
"G.5.l.e   # 4.p.}.f U+I.8 e [ -.|+8 Z+`+ @[.5.).t ) - .@r e+N X+L H +@v.N.F.i.l.",
"5.5.l.s.    u @@D.y &.L L 5 y.: {.| &.#@}.C.4.e W f.o E D V C+U b+n+M i *+v.5.l.",
"l.l.P.q.  $ 4 [ 3 ` * 7 I.5   $@H.H u <.m.H.6 I.G , D C C V F+= Z %@&@*@D u 5.l.",
"L J.t 5 I & 5 + ` X+k U. .=@=@<+n ` I.` ' ' ..5 8 R._.P E+`.O 9 `.5+p e+d ' e.H ",
"S.d+j.c.7 = -@R._.;@S W !.` | L R.7 >@,@d.'@} >+` n % 7 8 R )@j+R.K * { + !@: e ",
"l.O.&+0.~@{.{@]@'.c.+ + + ~.~.|.|+^@{ /@(@x [ o.[.[._@`+|.{ #+f 7.6.:@N.j.8 H u.",
"u F./ }.U+^ <@[.] % j.  I+D+# $   &.* [@y 4.}@o.[.[.[.C.H.d+*.& u.v.O.l.e & 8 y ",
"j.y |@}.1@} 2@:@+@5 8 # I.I.6+3@v Q+* 4@& u q.<.[.[.}.2 +@..j.k H k I     l 7 & ",
"l 5 }@6.] & `+e s.5 K >+_+! t % 4 3 * x H l i / <./ ^ # m (.F I.[+I.:+H | t k % ",
"% # : ~ &.R 5@H p+H d ' ; I.I+# '.3 k s.]+y 4 i : z.  I m `.>+..; ; n+n+o+k H & ",
"U = Z.C+6@7@ .d R 8@= e+W 9 9 `.W.c+9@8@U *@= 0@O+..9 V L+a@N ` 3+U U = Z Z U C+",
",.,.% #+)+:.. . . :.b@A.|+c@b@e z I.J.J.J.d@>+8 t m J.~.e@|+V+=+*.a.& U+5@|+:.{+"};
